<?xml version="1.0" encoding="UTF-8"?>
<!-- Created with Inkscape (http://www.inkscape.org/) -->
<svg width="64.306mm" height="63.773mm" version="1.1" viewBox="0 0 64.306 63.773" xmlns="http://www.w3.org/2000/svg">
 <g transform="translate(-245.91 -181.47)">
  <g transform="matrix(.64306 .3543 -.64306 .3543 254.64 26.853)">
   <g transform="translate(65.929 -7.625)">
    <rect x="210.95" y="248.09" width="49.078" height="49.078" fill="#483d8b" stroke="#483d8b" stroke-linecap="round" stroke-width=".92171"/>
    <g fill="#fff" stroke-width=".22013" aria-label="Servidor">
     <path d="m224.99 288.84v0.67869q-0.39618-0.18948-0.74758-0.2825-0.3514-0.093-0.67869-0.093-0.56844 0-0.8785 0.22049-0.30661 0.22048-0.30661 0.62701 0 0.34106 0.20326 0.51676 0.20671 0.17226 0.77859 0.27905l0.4203 0.0861q0.7786 0.14814 1.1472 0.52366 0.37207 0.37207 0.37207 0.99907 0 0.74759-0.50298 1.1334-0.49954 0.38585-1.4676 0.38585-0.36518 0-0.7786-0.0827-0.40996-0.0827-0.85094-0.2446v-0.71658q0.42375 0.23771 0.83027 0.35829t0.79927 0.12058q0.596 0 0.91984-0.23427t0.32384-0.66835q0-0.37896-0.23427-0.59256-0.23082-0.21359-0.76137-0.32039l-0.42374-0.0827q-0.7786-0.15503-1.1266-0.48576-0.34796-0.33073-0.34796-0.91984 0-0.68213 0.47887-1.0749 0.48232-0.39274 1.3264-0.39274 0.36173 0 0.73725 0.0654 0.37551 0.0655 0.76825 0.19637z"/>
     <path d="m229.66 291.73v0.31005h-2.9146q0.0413 0.65457 0.39274 0.99908 0.35484 0.34107 0.9853 0.34107 0.36518 0 0.70624-0.0896 0.34451-0.0896 0.68213-0.26871v0.59944q-0.34106 0.1447-0.69935 0.22049-0.35829 0.0758-0.72692 0.0758-0.92329 0-1.4642-0.53743-0.53743-0.53744-0.53743-1.4538 0-0.94741 0.50987-1.5021 0.51332-0.5581 1.3815-0.5581 0.77859 0 1.2299 0.50298 0.45475 0.49954 0.45475 1.3608zm-0.6339-0.18604q-7e-3 -0.52021-0.29283-0.83027-0.2825-0.31006-0.75103-0.31006-0.53055 0-0.85094 0.29973-0.31695 0.29972-0.36518 0.84405z"/>
     <path d="m232.94 290.55q-0.1068-0.062-0.23427-0.0896-0.12402-0.031-0.27561-0.031-0.53743 0-0.82682 0.3514-0.28594 0.34796-0.28594 1.0025v2.0326h-0.63735v-3.8585h0.63735v0.59944q0.19981-0.3514 0.52021-0.52021 0.32039-0.17225 0.77859-0.17225 0.0655 0 0.14469 0.0103 0.0792 7e-3 0.1757 0.0241z"/>
     <path d="m233.15 289.96h0.67179l1.2058 3.2384 1.2058-3.2384h0.6718l-1.447 3.8585h-0.86127z"/>
     <path d="m237.78 289.96h0.6339v3.8585h-0.6339zm0-1.5021h0.6339v0.80271h-0.6339z"/>
     <path d="m242.28 290.55v-2.0877h0.6339v5.3606h-0.6339v-0.57877q-0.19982 0.34451-0.50643 0.51332-0.30317 0.16536-0.73036 0.16536-0.69936 0-1.1403-0.5581-0.43753-0.55811-0.43753-1.4676 0-0.90951 0.43753-1.4676 0.44097-0.5581 1.1403-0.5581 0.42719 0 0.73036 0.16881 0.30661 0.16536 0.50643 0.50987zm-2.1601 1.347q0 0.69935 0.28595 1.099 0.28938 0.39619 0.79237 0.39619 0.50298 0 0.79237-0.39619 0.28939-0.39963 0.28939-1.099 0-0.69936-0.28939-1.0956-0.28939-0.39963-0.79237-0.39963-0.50299 0-0.79237 0.39963-0.28595 0.39619-0.28595 1.0956z"/>
     <path d="m245.71 290.4q-0.50987 0-0.80615 0.39963-0.29628 0.39619-0.29628 1.0887 0 0.69246 0.29283 1.0921 0.29628 0.39619 0.8096 0.39619 0.50643 0 0.80271-0.39963 0.29628-0.39964 0.29628-1.0886 0-0.68558-0.29628-1.0852-0.29628-0.40308-0.80271-0.40308zm0-0.53743q0.82682 0 1.2988 0.53743 0.47198 0.53744 0.47198 1.4883 0 0.9474-0.47198 1.4883-0.47198 0.53743-1.2988 0.53743-0.83027 0-1.3022-0.53743-0.46853-0.54088-0.46853-1.4883 0-0.95085 0.46853-1.4883 0.47198-0.53743 1.3022-0.53743z"/>
     <path d="m250.77 290.55q-0.10679-0.062-0.23426-0.0896-0.12403-0.031-0.27561-0.031-0.53744 0-0.82682 0.3514-0.28595 0.34796-0.28595 1.0025v2.0326h-0.63734v-3.8585h0.63734v0.59944q0.19982-0.3514 0.52021-0.52021 0.3204-0.17225 0.77859-0.17225 0.0655 0 0.1447 0.0103 0.0792 7e-3 0.1757 0.0241z"/>
    </g>
   </g>
   <g transform="translate(98.846 -1.1667)">
    <rect x="158.03" y="221.63" width="49.078" height="49.078" fill="#c6afe9" stroke="#483d8b" stroke-linecap="round" stroke-width=".92171"/>
    <g fill="#483d8b" stroke-width=".22013" aria-label="Internet">
     <path d="m168.99 262.22h0.69591v5.1435h-0.69591z"/>
     <path d="m174.25 265.03v2.3289h-0.63389v-2.3082q0-0.54777-0.2136-0.81994-0.2136-0.27216-0.64079-0.27216-0.51332 0-0.8096 0.32728-0.29628 0.32729-0.29628 0.89228v2.1808h-0.63734v-3.8585h0.63734v0.59945q0.22738-0.34796 0.53399-0.52021 0.31006-0.17226 0.71314-0.17226 0.6649 0 1.006 0.41342 0.34106 0.40996 0.34106 1.2092z"/>
     <path d="m176.15 262.41v1.0955h1.3057v0.49265h-1.3057v2.0946q0 0.47198 0.12747 0.60634 0.13091 0.13436 0.5271 0.13436h0.65112v0.53054h-0.65112q-0.73381 0-1.0129-0.27216-0.27905-0.27561-0.27905-0.99908v-2.0946h-0.46509v-0.49265h0.46509v-1.0955z"/>
     <path d="m181.59 265.27v0.31006h-2.9146q0.0413 0.65457 0.39274 0.99908 0.35484 0.34106 0.9853 0.34106 0.36518 0 0.70624-0.0896 0.34451-0.0896 0.68213-0.26872v0.59945q-0.34106 0.14469-0.69935 0.22049t-0.72692 0.0758q-0.92329 0-1.4642-0.53744-0.53743-0.53743-0.53743-1.4538 0-0.9474 0.50987-1.5021 0.51332-0.55811 1.3815-0.55811 0.77859 0 1.2299 0.50299 0.45475 0.49954 0.45475 1.3608zm-0.6339-0.18603q-7e-3 -0.52021-0.29283-0.83027-0.2825-0.31006-0.75103-0.31006-0.53055 0-0.85094 0.29972-0.31695 0.29973-0.36518 0.84405z"/>
     <path d="m184.86 264.09q-0.1068-0.062-0.23427-0.0896-0.12402-0.031-0.2756-0.031-0.53744 0-0.82683 0.3514-0.28594 0.34795-0.28594 1.0025v2.0326h-0.63734v-3.8585h0.63734v0.59945q0.19981-0.3514 0.52021-0.52021 0.32039-0.17226 0.77859-0.17226 0.0655 0 0.14469 0.0103 0.0792 7e-3 0.1757 0.0241z"/>
     <path d="m188.61 265.03v2.3289h-0.6339v-2.3082q0-0.54777-0.2136-0.81994-0.21359-0.27216-0.64079-0.27216-0.51332 0-0.80959 0.32728-0.29628 0.32729-0.29628 0.89228v2.1808h-0.63735v-3.8585h0.63735v0.59945q0.22737-0.34796 0.53399-0.52021 0.31006-0.17226 0.71313-0.17226 0.66491 0 1.006 0.41342 0.34107 0.40996 0.34107 1.2092z"/>
     <path d="m193.17 265.27v0.31006h-2.9146q0.0413 0.65457 0.39274 0.99908 0.35484 0.34106 0.9853 0.34106 0.36518 0 0.70624-0.0896 0.34451-0.0896 0.68213-0.26872v0.59945q-0.34106 0.14469-0.69935 0.22049t-0.72692 0.0758q-0.92329 0-1.4642-0.53744-0.53743-0.53743-0.53743-1.4538 0-0.9474 0.50987-1.5021 0.51332-0.55811 1.3815-0.55811 0.77859 0 1.2299 0.50299 0.45475 0.49954 0.45475 1.3608zm-0.6339-0.18603q-7e-3 -0.52021-0.29283-0.83027-0.2825-0.31006-0.75103-0.31006-0.53055 0-0.85094 0.29972-0.31695 0.29973-0.36518 0.84405z"/>
     <path d="m194.84 262.41v1.0955h1.3057v0.49265h-1.3057v2.0946q0 0.47198 0.12747 0.60634 0.13091 0.13436 0.5271 0.13436h0.65112v0.53054h-0.65112q-0.73381 0-1.0129-0.27216-0.27906-0.27561-0.27906-0.99908v-2.0946h-0.46508v-0.49265h0.46508v-1.0955z"/>
    </g>
   </g>
   <g transform="translate(116.42)">
    <rect x="120.46" y="200.46" width="49.078" height="49.078" fill="#fff" stroke="#483d8b" stroke-linecap="round" stroke-width=".92171"/>
    <g fill="#483d8b" stroke-width=".22013" aria-label="Navegador">
     <path d="m126.04 241.05h0.93706l2.2807 4.3029v-4.3029h0.67524v5.1435h-0.93707l-2.2806-4.3029v4.3029h-0.67524z"/>
     <path d="m133.04 244.25q-0.76825 0-1.0645 0.1757t-0.29628 0.59945q0 0.33762 0.22048 0.53744 0.22394 0.19637 0.60634 0.19637 0.5271 0 0.84405-0.37207 0.32039-0.37552 0.32039-0.99564v-0.14125zm1.2644-0.26182v2.2014h-0.6339v-0.58566q-0.21704 0.3514-0.54088 0.52021-0.32383 0.16536-0.79237 0.16536-0.59255 0-0.94395-0.33073-0.34796-0.33417-0.34796-0.89228 0-0.65112 0.43408-0.98185 0.43753-0.33073 1.3022-0.33073h0.88883v-0.062q0-0.43753-0.28938-0.67524-0.28595-0.24116-0.80616-0.24116-0.33073 0-0.64423 0.0792t-0.60289 0.23771v-0.58566q0.34795-0.13436 0.67524-0.19982 0.32728-0.0689 0.63734-0.0689 0.83716 0 1.2506 0.43408t0.41341 1.316z"/>
     <path d="m135.16 242.33h0.6718l1.2058 3.2384 1.2058-3.2384h0.6718l-1.4469 3.8585h-0.86128z"/>
     <path d="m143.09 244.11v0.31005h-2.9146q0.0413 0.65457 0.39274 0.99908 0.35485 0.34107 0.9853 0.34107 0.36518 0 0.70625-0.0896 0.34451-0.0896 0.68213-0.26871v0.59944q-0.34107 0.1447-0.69936 0.22049-0.35829 0.0758-0.72691 0.0758-0.92329 0-1.4642-0.53743-0.53744-0.53744-0.53744-1.4538 0-0.94741 0.50988-1.5021 0.51332-0.5581 1.3815-0.5581 0.7786 0 1.2299 0.50298 0.45476 0.49954 0.45476 1.3608zm-0.6339-0.18604q-7e-3 -0.52021-0.29284-0.83027-0.28249-0.31006-0.75103-0.31006-0.53054 0-0.85094 0.29973-0.31694 0.29972-0.36518 0.84405z"/>
     <path d="m146.67 244.22q0-0.68902-0.28594-1.068-0.2825-0.37896-0.79582-0.37896-0.50987 0-0.79581 0.37896-0.2825 0.37896-0.2825 1.068 0 0.68558 0.2825 1.0645 0.28594 0.37896 0.79581 0.37896 0.51332 0 0.79582-0.37896 0.28594-0.37896 0.28594-1.0645zm0.6339 1.4952q0 0.98529-0.43753 1.4642-0.43752 0.48232-1.3401 0.48232-0.33417 0-0.63045-0.0517-0.29628-0.0482-0.57533-0.15158v-0.61668q0.27905 0.15159 0.55121 0.22393 0.27217 0.0724 0.55466 0.0724 0.62357 0 0.93362-0.32728 0.31006-0.32384 0.31006-0.98186v-0.3135q-0.19637 0.34107-0.50298 0.50987-0.30661 0.16881-0.73381 0.16881-0.70969 0-1.1438-0.54088t-0.43408-1.4332q0-0.89572 0.43408-1.4366t1.1438-0.54088q0.4272 0 0.73381 0.16881t0.50298 0.50987v-0.58566h0.6339z"/>
     <path d="m150.36 244.25q-0.76826 0-1.0645 0.1757t-0.29628 0.59945q0 0.33762 0.22049 0.53744 0.22393 0.19637 0.60634 0.19637 0.5271 0 0.84405-0.37207 0.32039-0.37552 0.32039-0.99564v-0.14125zm1.2644-0.26182v2.2014h-0.6339v-0.58566q-0.21704 0.3514-0.54088 0.52021-0.32384 0.16536-0.79237 0.16536-0.59256 0-0.94396-0.33073-0.34795-0.33417-0.34795-0.89228 0-0.65112 0.43408-0.98185 0.43753-0.33073 1.3022-0.33073h0.88883v-0.062q0-0.43753-0.28939-0.67524-0.28594-0.24116-0.80615-0.24116-0.33073 0-0.64423 0.0792-0.31351 0.0792-0.6029 0.23771v-0.58566q0.34796-0.13436 0.67524-0.19982 0.32729-0.0689 0.63735-0.0689 0.83716 0 1.2506 0.43408t0.41341 1.316z"/>
     <path d="m155.47 242.92v-2.0877h0.6339v5.3606h-0.6339v-0.57877q-0.19982 0.34451-0.50643 0.51332-0.30317 0.16536-0.73036 0.16536-0.69936 0-1.1403-0.5581-0.43753-0.55811-0.43753-1.4676 0-0.90951 0.43753-1.4676 0.44097-0.5581 1.1403-0.5581 0.42719 0 0.73036 0.16881 0.30661 0.16536 0.50643 0.50987zm-2.1601 1.347q0 0.69935 0.28595 1.099 0.28938 0.39619 0.79237 0.39619 0.50298 0 0.79237-0.39619 0.28939-0.39963 0.28939-1.099 0-0.69936-0.28939-1.0956-0.28939-0.39963-0.79237-0.39963-0.50299 0-0.79237 0.39963-0.28595 0.39619-0.28595 1.0956z"/>
     <path d="m158.9 242.78q-0.50987 0-0.80615 0.39963-0.29628 0.39619-0.29628 1.0887 0 0.69246 0.29283 1.0921 0.29628 0.39619 0.8096 0.39619 0.50643 0 0.80271-0.39963 0.29628-0.39964 0.29628-1.0886 0-0.68558-0.29628-1.0852-0.29628-0.40308-0.80271-0.40308zm0-0.53743q0.82682 0 1.2988 0.53743 0.47198 0.53744 0.47198 1.4883 0 0.9474-0.47198 1.4883-0.47198 0.53743-1.2988 0.53743-0.83027 0-1.3022-0.53743-0.46853-0.54088-0.46853-1.4883 0-0.95085 0.46853-1.4883 0.47198-0.53743 1.3022-0.53743z"/>
     <path d="m163.96 242.93q-0.10679-0.062-0.23426-0.0896-0.12403-0.031-0.27561-0.031-0.53744 0-0.82682 0.3514-0.28595 0.34796-0.28595 1.0025v2.0326h-0.63734v-3.8585h0.63734v0.59944q0.19982-0.3514 0.52021-0.52021 0.3204-0.17225 0.77859-0.17225 0.0655 0 0.1447 0.0103 0.0792 7e-3 0.1757 0.0241z"/>
    </g>
   </g>
  </g>
 </g>
</svg>
