<?xml version="1.0" encoding="UTF-8" standalone="no"?>
<!-- Created with Inkscape (http://www.inkscape.org/) -->

<svg
   width="512"
   height="512"
   version="1.1"
   viewBox="0 0 480 480"
   id="svg28"
   sodipodi:docname="logo-css3.svg"
   inkscape:version="1.1.2 (1:1.1+202202050852+0a00cf5339)"
   xmlns:inkscape="http://www.inkscape.org/namespaces/inkscape"
   xmlns:sodipodi="http://sodipodi.sourceforge.net/DTD/sodipodi-0.dtd"
   xmlns="http://www.w3.org/2000/svg"
   xmlns:svg="http://www.w3.org/2000/svg"
   xmlns:rdf="http://www.w3.org/1999/02/22-rdf-syntax-ns#"
   xmlns:cc="http://creativecommons.org/ns#"
   xmlns:dc="http://purl.org/dc/elements/1.1/">
  <defs
     id="defs32" />
  <sodipodi:namedview
     id="namedview30"
     pagecolor="#ffffff"
     bordercolor="#666666"
     borderopacity="1.0"
     inkscape:pageshadow="2"
     inkscape:pageopacity="0.0"
     inkscape:pagecheckerboard="0"
     showgrid="false"
     inkscape:zoom="1.5390625"
     inkscape:cx="255.67513"
     inkscape:cy="255.67513"
     inkscape:window-width="1920"
     inkscape:window-height="1053"
     inkscape:window-x="0"
     inkscape:window-y="0"
     inkscape:window-maximized="1"
     inkscape:current-layer="svg28" />
  <metadata
     id="metadata2">
    <rdf:RDF>
      <cc:Work
         rdf:about="">
        <dc:format>image/svg+xml</dc:format>
        <dc:type
           rdf:resource="http://purl.org/dc/dcmitype/StillImage" />
      </cc:Work>
    </rdf:RDF>
  </metadata>
  <g
     id="g957"
     transform="matrix(1.0938791,0,0,1.0938791,-22.532522,-74.124475)">
    <polygon
       points="437.37,100.62 404.32,470.82 255.78,512 107.64,470.88 74.633,100.62 "
       fill="#264de4"
       id="polygon4"
       transform="scale(0.9375)" />
    <polygon
       points="256,480.52 376.03,447.25 404.27,130.89 256,130.89 "
       fill="#2965f1"
       id="polygon6"
       transform="scale(0.9375)" />
    <g
       fill="#ebebeb"
       id="g14"
       transform="scale(0.9375)">
      <polygon
         points="256,268.22 150.31,268.22 154.38,313.63 256,313.63 "
         id="polygon8" />
      <polygon
         points="256,176.3 255.84,176.3 142.13,176.3 146.26,221.72 256,221.72 "
         id="polygon10" />
      <polygon
         points="156.41,336.33 162.77,407.63 255.79,433.46 256,433.4 256,386.15 255.8,386.21 205.23,372.55 201.99,336.33 177.42,336.33 "
         id="polygon12" />
    </g>
    <polygon
       points="311.76,313.63 306.49,372.52 255.84,386.19 255.84,433.44 348.94,407.63 349.62,399.96 360.29,280.41 361.4,268.22 369.6,176.3 255.84,176.3 255.84,221.72 319.83,221.72 315.7,268.22 255.84,268.22 255.84,313.63 "
       fill="#ffffff"
       id="polygon22"
       transform="scale(0.9375)" />
  </g>
</svg>
