<?xml version="1.0" encoding="UTF-8" standalone="no"?>
<svg
   width="512"
   height="512"
   version="1.2"
   viewBox="0 0 384 384"
   id="svg62"
   sodipodi:docname="logo-nodejs.svg"
   inkscape:version="1.1.2 (1:1.1+202202050852+0a00cf5339)"
   xmlns:inkscape="http://www.inkscape.org/namespaces/inkscape"
   xmlns:sodipodi="http://sodipodi.sourceforge.net/DTD/sodipodi-0.dtd"
   xmlns="http://www.w3.org/2000/svg"
   xmlns:svg="http://www.w3.org/2000/svg">
  <sodipodi:namedview
     id="namedview64"
     pagecolor="#ffffff"
     bordercolor="#666666"
     borderopacity="1.0"
     inkscape:pageshadow="2"
     inkscape:pageopacity="0.0"
     inkscape:pagecheckerboard="0"
     showgrid="false"
     inkscape:zoom="1.5390625"
     inkscape:cx="255.67513"
     inkscape:cy="255.67513"
     inkscape:window-width="1920"
     inkscape:window-height="1053"
     inkscape:window-x="0"
     inkscape:window-y="0"
     inkscape:window-maximized="1"
     inkscape:current-layer="svg62" />
  <defs
     id="defs36">
    <clipPath
       id="a">
      <path
         d="m239.03 226.6-42.13 24.317c-1.578 0.91-2.546 2.59-2.546 4.406v48.668c0 1.817 0.968 3.496 2.546 4.406l42.133 24.336c1.575 0.907 3.517 0.907 5.09 0l42.126-24.336c1.57-0.91 2.54-2.59 2.54-4.406v-48.668c0-1.816-0.97-3.496-2.55-4.406l-42.12-24.317c-0.79-0.453-1.67-0.68-2.55-0.68s-1.76 0.227-2.55 0.68"
         id="path2" />
    </clipPath>
    <linearGradient
       id="b"
       x1="-.348"
       x2="1.251"
       gradientTransform="matrix(-38.065,77.652,-77.652,-38.065,258.72,244.63)"
       gradientUnits="userSpaceOnUse">
      <stop
         stop-color="#3E863D"
         offset=".3"
         id="stop5" />
      <stop
         stop-color="#55934F"
         offset=".5"
         id="stop7" />
      <stop
         stop-color="#5AAD45"
         offset=".8"
         id="stop9" />
    </linearGradient>
    <clipPath
       id="c">
      <path
         d="m195.4 307.09c0.403 0.523 0.907 0.976 1.5 1.316l36.14 20.875 6.02 3.46c0.9 0.52 1.926 0.74 2.934 0.665 0.336-0.027 0.672-0.09 1-0.183l44.434-81.36c-0.34-0.37-0.738-0.68-1.184-0.94l-27.586-15.93-14.582-8.39c-0.414-0.24-0.863-0.41-1.32-0.53z"
         id="path12" />
    </clipPath>
    <linearGradient
       id="d"
       x1="-.456"
       x2=".582"
       gradientTransform="matrix(106.81,-78.917,78.917,106.81,235.19,285.39)"
       gradientUnits="userSpaceOnUse">
      <stop
         stop-color="#3E863D"
         offset=".57"
         id="stop15" />
      <stop
         stop-color="#619857"
         offset=".72"
         id="stop17" />
      <stop
         stop-color="#76AC64"
         offset="1"
         id="stop19" />
    </linearGradient>
    <clipPath
       id="e">
      <path
         d="m241.07 225.95c-0.707 0.07-1.398 0.29-2.035 0.652l-42.01 24.247 45.3 82.51c0.63-0.09 1.25-0.3 1.81-0.624l42.13-24.336c1.3-0.754 2.19-2.03 2.46-3.476l-46.18-78.89c-0.34-0.067-0.68-0.102-1.03-0.102-0.14 0-0.28 7e-3 -0.42 0.02"
         id="path22" />
    </clipPath>
    <linearGradient
       id="f"
       x1=".043"
       x2=".984"
       gradientTransform="matrix(97.417,0,0,97.417,192.86,279.65)"
       gradientUnits="userSpaceOnUse">
      <stop
         stop-color="#6BBF47"
         offset=".16"
         id="stop25" />
      <stop
         stop-color="#79B461"
         offset=".38"
         id="stop27" />
      <stop
         stop-color="#75AC64"
         offset=".47"
         id="stop29" />
      <stop
         stop-color="#659E5A"
         offset=".7"
         id="stop31" />
      <stop
         stop-color="#3E863D"
         offset=".9"
         id="stop33" />
    </linearGradient>
  </defs>
  <g
     transform="translate(-4.65e-4,87.909)"
     id="g60">
    <g
       stroke-width="0.86805"
       id="g46">
      <path
         d="m 189.8,235.18 c -1.2674,0 -2.526,-0.33247 -3.6371,-0.97222 l -11.577,-6.8542 c -1.7292,-0.96701 -0.88541,-1.309 -0.3151,-1.5061 2.3056,-0.80729 2.7734,-0.98958 5.2344,-2.3872 0.25868,-0.14757 0.59722,-0.0955 0.86198,0.0608 l 8.8941,5.2778 c 0.32118,0.17361 0.77691,0.17361 1.0746,0 l 34.679,-20.017 c 0.32118,-0.18229 0.52951,-0.55555 0.52951,-0.9375 v -40.017 c 0,-0.3993 -0.20833,-0.75521 -0.53646,-0.95486 l -34.665,-20 c -0.32118,-0.19097 -0.74653,-0.19097 -1.0677,0 l -34.658,20 c -0.33594,0.19097 -0.54948,0.56424 -0.54948,0.94618 v 40.017 c 0,0.38195 0.20833,0.74653 0.53819,0.92882 l 9.4965,5.4861 c 5.1562,2.5781 8.3073,-0.46007 8.3073,-3.5156 v -39.496 c 0,-0.56424 0.44271,-0.99826 1.007,-0.99826 h 4.3923 c 0.54688,0 0.99827,0.43402 0.99827,0.99826 v 39.514 c 0,6.875 -3.75,10.825 -10.269,10.825 -2.0052,0 -3.5851,0 -7.9948,-2.1701 l -9.0972,-5.243 c -2.2483,-1.3021 -3.6371,-3.7326 -3.6371,-6.3281 v -40.017 c 0,-2.6042 1.3889,-5.0347 3.6371,-6.3194 l 34.713,-20.026 c 2.1962,-1.2413 5.1128,-1.2413 7.2916,0 l 34.67,20.035 c 2.2396,1.2934 3.6371,3.7153 3.6371,6.3194 v 40.017 c 0,2.5955 -1.3976,5.0174 -3.6371,6.3194 l -34.67,20.026 c -1.1111,0.64236 -2.3698,0.97222 -3.6545,0.97222"
         fill="#689f63"
         id="path38" />
      <path
         d="m 200.51,207.61 c -15.174,0 -18.355,-6.9653 -18.355,-12.807 0,-0.55555 0.44792,-0.99826 1.0043,-0.99826 h 4.4792 c 0.49479,0 0.91145,0.36024 0.98958,0.84896 0.67708,4.5642 2.691,6.8663 11.866,6.8663 7.309,0 10.417,-1.651 10.417,-5.5269 0,-2.2309 -0.88541,-3.8889 -12.24,-5 -9.4965,-0.9375 -15.365,-3.0295 -15.365,-10.625 0,-6.9965 5.9028,-11.163 15.79,-11.163 11.102,0 16.606,3.8542 17.3,12.135 0.026,0.28646 -0.0781,0.56424 -0.2691,0.77257 -0.19097,0.19965 -0.46007,0.32118 -0.73784,0.32118 h -4.5052 c -0.46875,0 -0.87673,-0.32986 -0.97222,-0.78125 -1.0851,-4.8003 -3.7066,-6.3368 -10.833,-6.3368 -7.9774,0 -8.9062,2.7778 -8.9062,4.8611 0,2.526 1.0938,3.2639 11.858,4.6875 10.66,1.4149 15.72,3.4114 15.72,10.903 0,7.5521 -6.3021,11.884 -17.292,11.884 m 42.239,-42.439 h 1.1632 c 0.95486,0 1.1372,-0.6684 1.1372,-1.059 0,-1.0243 -0.70312,-1.0243 -1.0938,-1.0243 h -1.1979 z m -1.4149,-3.2812 h 2.5781 c 0.88542,0 2.6215,0 2.6215,1.9792 0,1.3802 -0.88541,1.6667 -1.4149,1.8403 1.033,0.0694 1.1024,0.74652 1.2413,1.7014 0.0694,0.59896 0.18229,1.6319 0.39063,1.9792 h -1.5885 c -0.0434,-0.34722 -0.28646,-2.2569 -0.28646,-2.3611 -0.10417,-0.42535 -0.25173,-0.63368 -0.78125,-0.63368 h -1.3108 v 3.0035 h -1.4496 z m -3.099,3.7326 c 0,3.1076 2.5087,5.625 5.5903,5.625 3.1076,0 5.6163,-2.5694 5.6163,-5.625 0,-3.1163 -2.5434,-5.5903 -5.625,-5.5903 -3.0382,0 -5.5903,2.4392 -5.5903,5.5816 m 12.292,0.026 c 0,3.6806 -3.0122,6.684 -6.684,6.684 -3.6458,0 -6.684,-2.9687 -6.684,-6.684 0,-3.7847 3.1076,-6.684 6.684,-6.684 3.6024,0 6.6753,2.908 6.6753,6.684"
         fill="#689f63"
         id="path40" />
      <path
         d="m 82.41,78.602 c 0,-1.5972 -0.84201,-3.0642 -2.2205,-3.8585 l -36.767,-21.154 c -0.62066,-0.36458 -1.316,-0.55555 -2.0208,-0.5816 h -0.38021 c -0.70486,0.02604 -1.4002,0.21701 -2.0312,0.5816 l -36.766,21.154 c -1.3698,0.79861 -2.224,2.2656 -2.224,3.8628 l 0.080729,56.979 c 0,0.78993 0.40799,1.5278 1.1024,1.9184 0.67708,0.41666 1.5278,0.41666 2.2049,0 l 21.858,-12.517 c 1.3802,-0.82118 2.2222,-2.2726 2.2222,-3.8542 v -26.619 c 0,-1.5885 0.84201,-3.0555 2.2179,-3.8455 l 9.3055,-5.3594 c 0.69097,-0.3993 1.4496,-0.59722 2.2222,-0.59722 0.76041,0 1.5365,0.19618 2.2083,0.59635 l 9.3012,5.3576 c 1.3767,0.78993 2.2222,2.2569 2.2222,3.8455 v 26.617 c 0,1.5799 0.8533,3.0382 2.2266,3.8542 l 21.844,12.509 c 0.68576,0.40798 1.5391,0.40798 2.2222,0 0.67361,-0.39063 1.1007,-1.1285 1.1007,-1.9184 z m 173.5,29.667 c 0,0.3967 -0.21094,0.76389 -0.55555,0.96007 l -12.628,7.2795 c -0.34288,0.19704 -0.76649,0.19704 -1.1085,0 l -12.63,-7.2795 c -0.34722,-0.19705 -0.55555,-0.56423 -0.55555,-0.96007 v -14.58 c 0,-0.39757 0.20833,-0.76389 0.54687,-0.96354 l 12.621,-7.2916 c 0.34722,-0.19965 0.77257,-0.19965 1.1198,0 l 12.63,7.2916 c 0.34722,0.19965 0.55555,0.56597 0.55555,0.96354 z m 3.4114,-107.99 c -0.68923,-0.38368 -1.5278,-0.37326 -2.2083,0.023437 -0.67708,0.3993 -1.0955,1.1285 -1.0955,1.9184 v 56.423 c 0,0.55555 -0.29514,1.0677 -0.77604,1.3455 -0.47743,0.27778 -1.072,0.27778 -1.5538,0 l -9.21,-5.3047 c -1.3715,-0.7934 -3.0608,-0.7934 -4.4375,0 l -36.779,21.227 c -1.3741,0.78993 -2.2222,2.2569 -2.2222,3.8368 v 42.465003 c 0,1.5885 0.84809,3.0469 2.2222,3.8455 l 36.779,21.241 c 1.3733,0.78993 3.0642,0.78993 4.4418,0 l 36.779,-21.25 c 1.3715,-0.79861 2.2222,-2.2569 2.2222,-3.8455 V 16.374437 c 0,-1.6111 -0.87673,-3.0929 -2.283,-3.8802 z m 122.48,93.024 c 1.3663,-0.7934 2.2075,-2.2587 2.2075,-3.8385 v -10.292 c 0,-1.5833 -0.84201,-3.0443 -2.2109,-3.8411 l -36.545,-21.215 c -1.3802,-0.79861 -3.0729,-0.79861 -4.4531,0 l -36.771,21.224 c -1.3802,0.79861 -2.2222,2.2569 -2.2222,3.8455 v 42.448 c 0,1.5972 0.85937,3.0729 2.2396,3.8628 l 36.536,20.825 c 1.3455,0.77257 2.9948,0.78125 4.3576,0.026 l 22.101,-12.283 c 0.69444,-0.39063 1.1372,-1.1285 1.1372,-1.9271 0,-0.7986 -0.42535,-1.5451 -1.1198,-1.9358 l -36.996,-21.233 c -0.69444,-0.39062 -1.1198,-1.1285 -1.1198,-1.9184 v -13.316 c 0,-0.79514 0.41667,-1.5278 1.1111,-1.9236 l 11.51,-6.6406 c 0.68577,-0.3993 1.5278,-0.3993 2.2135,0 l 11.519,6.6406 c 0.68576,0.39062 1.1111,1.1285 1.1111,1.9184 v 10.469 c 0,0.78993 0.42535,1.5278 1.1111,1.9271 0.68576,0.39062 1.5365,0.39062 2.2222,-0.009 z"
         fill="#333333"
         fill-rule="evenodd"
         id="path42" />
      <path
         d="m 342.48,91.319 c 0.26042,-0.15364 0.5868,-0.15364 0.85069,0 l 7.0573,4.0712 c 0.26389,0.15278 0.42535,0.43403 0.42535,0.73784 v 8.151 c 0,0.30382 -0.16146,0.58507 -0.42535,0.73785 l -7.0573,4.0712 c -0.26389,0.15364 -0.59027,0.15364 -0.85069,0 l -7.0529,-4.0712 c -0.2691,-0.15278 -0.43403,-0.43403 -0.43403,-0.73785 v -8.151 c 0,-0.30382 0.15625,-0.58507 0.42535,-0.73784 z"
         fill="#689f63"
         fill-rule="evenodd"
         id="path44" />
    </g>
    <g
       transform="matrix(0.86805,0,0,0.86805,-67.974,-142.37)"
       clip-path="url(#a)"
       id="g50">
      <path
         d="M 331.36,246.79 212.64,188.6 151.77,312.77 270.48,370.963 Z"
         fill="url(#b)"
         id="path48"
         style="fill:url(#b)" />
    </g>
    <g
       transform="matrix(0.86805,0,0,0.86805,-67.974,-142.37)"
       clip-path="url(#c)"
       id="g54">
      <path
         d="m 144.07,264 83.825,113.45 110.86,-81.906 -83.83,-113.45 z"
         fill="url(#d)"
         id="path52"
         style="fill:url(#d)" />
    </g>
    <g
       transform="matrix(0.86805,0,0,0.86805,-67.974,-142.37)"
       clip-path="url(#e)"
       id="g58">
      <path
         d="m 197.02,225.93 v 107.43 h 91.683 V 225.93 Z"
         fill="url(#f)"
         id="path56"
         style="fill:url(#f)" />
    </g>
  </g>
</svg>
