<?xml version="1.0" encoding="UTF-8" standalone="no"?>
<svg
   width="512"
   height="512"
   version="1.1"
   viewBox="0 0 104.86 104.83"
   id="svg4"
   sodipodi:docname="logo-bootstrap.svg"
   inkscape:version="1.1.2 (1:1.1+202202050852+0a00cf5339)"
   xmlns:inkscape="http://www.inkscape.org/namespaces/inkscape"
   xmlns:sodipodi="http://sodipodi.sourceforge.net/DTD/sodipodi-0.dtd"
   xmlns="http://www.w3.org/2000/svg"
   xmlns:svg="http://www.w3.org/2000/svg">
  <defs
     id="defs8" />
  <sodipodi:namedview
     id="namedview6"
     pagecolor="#ffffff"
     bordercolor="#666666"
     borderopacity="1.0"
     inkscape:pageshadow="2"
     inkscape:pageopacity="0.0"
     inkscape:pagecheckerboard="0"
     showgrid="false"
     inkscape:zoom="1.5390625"
     inkscape:cx="255.67513"
     inkscape:cy="255.67513"
     inkscape:window-width="1920"
     inkscape:window-height="1053"
     inkscape:window-x="0"
     inkscape:window-y="0"
     inkscape:window-maximized="1"
     inkscape:current-layer="svg4" />
  <path
     d="m 23.994831,10.651 c -5.550783,0 -9.657973,4.858396 -9.474276,10.127419 0.176515,5.061946 -0.05282,11.6174 -1.70318,16.964076 -1.656236,5.361335 -4.4554708,8.758881 -9.0284885,9.194928 v 4.923433 c 4.5730177,0.437012 7.3721595,3.832758 9.0283025,9.194928 1.650576,5.346397 1.879732,11.902221 1.70318,16.964076 -0.183928,5.268095 3.923401,10.127419 9.475204,10.127419 h 56.877203 c 5.550783,0 9.657045,-4.858396 9.473349,-10.127419 -0.176515,-5.061947 0.05282,-11.6174 1.703181,-16.964076 1.656234,-5.36217 4.448605,-8.759253 9.021804,-9.194928 V 46.937423 C 96.498096,46.500411 93.705726,43.104665 92.049306,37.742495 90.398729,32.396932 90.169572,25.840272 90.346125,20.778419 90.530053,15.510324 86.423467,10.651 80.872776,10.651 H 23.993717 Z m 45.748731,47.704448 c 0,7.254984 -5.411526,11.65451 -14.392327,11.65451 H 40.06362 A 1.6489064,1.6489064 0 0 1 38.414713,68.361052 V 30.437041 a 1.6489064,1.6489064 0 0 1 1.648907,-1.648906 h 15.200406 c 7.488315,0 12.403212,4.056255 12.403212,10.28421 0,4.371044 -3.306069,8.28424 -7.51791,8.969761 v 0.228006 c 5.733551,0.628918 9.593957,4.600016 9.593957,10.084742 z M 53.684979,34.015686 h -8.716668 v 12.312292 h 7.341636 c 5.675474,0 8.804806,-2.285349 8.804806,-6.370273 -5.7e-4,-3.828212 -2.691059,-5.942019 -7.429774,-5.942019 z m -8.716668,17.197872 v 13.568477 h 9.037396 c 5.909176,0 9.039157,-2.371073 9.039157,-6.827101 0,-4.456027 -3.217747,-6.742118 -9.419538,-6.742118 h -8.657385 z"
     fill="#7952b3"
     fill-rule="evenodd"
     stroke-width="0.190005"
     id="path2" />
</svg>
