<?xml version="1.0" encoding="UTF-8"?>
<!-- Generator: Adobe Illustrator 22.0.1, SVG Export Plug-In . SVG Version: 6.00 Build 0)  -->
<svg width="512" height="512" version="1.1" viewBox="0 0 512 512" xml:space="preserve" xmlns="http://www.w3.org/2000/svg">
<style type="text/css">
	.st0{fill:#8E714E;}
	.st1{fill:#442D22;}
	.st2{fill:#FFFFFF;}
	.st3{fill:#A6A385;}
	.st4{fill:#499D4A;}
	.st5{fill:#58AA50;}
</style>







<g transform="translate(0 46.101)" stroke-width="5.1251"><path class="st0" d="m471 306.51c-0.51251 0-1.025 1.5375-1.025 2.05v24.088l0.51252 0.51251h9.2252c4.6126 0 7.1752-0.51251 9.2252-1.5375 4.1001-2.05 5.6376-6.1502 5.6376-11.275 0-10.763-7.1752-14.863-18.45-14.863-1.025 0.51251-3.5876 0.51251-5.1251 1.025zm28.188 49.714c0-10.763-8.2002-16.913-22.551-16.913h-6.1502c-0.51252 0-1.025 0.51251-1.025 0.51251v25.113c0 2.05 1.5375 5.1251 3.5876 6.1502 2.05 1.025 6.6627 1.5375 9.7377 1.5375 9.2252-0.51251 16.4-5.6376 16.4-16.4zm-51.251-55.864c1.025 0 4.6126 0.51251 12.3 0.51251h22.038c9.7377 0 23.576 3.5876 23.576 18.45 0 7.1752-5.1251 12.3-11.275 15.375-0.51251 0-0.51251 0.51251 0 0.51251 9.2252 2.05 17.425 8.2002 17.425 18.963s-6.6627 17.425-16.4 21.526c-5.6376 2.05-13.325 3.5876-20.5 3.5876-5.6376 0-20.5-0.51251-29.213-0.51251-1.025-0.51251 1.025-4.1001 1.5375-5.1251 2.05 0 3.5876 0 5.6376-1.025 3.0751-1.025 3.0751-1.5375 3.5876-6.1502v-27.163-26.651c0-3.5876-1.5375-4.6126-3.5876-5.1251s-5.1251-1.025-7.1752-1.025c0-2.5626 2.05-5.6376 2.05-6.1502zm-63.039 68.677c2.05 2.05 7.1752 3.0751 12.3 3.0751 6.1502 0 11.788-1.025 17.425-6.1502 5.6376-5.1251 9.7377-13.325 9.7377-26.651 0-12.3-4.6126-22.551-14.35-28.701-5.6376-3.5876-12.3-4.6126-20.5-4.6126-2.05 0-4.6126 0-6.1502 1.025-0.51251 0-1.025 1.025-1.025 1.5375v29.213 26.138c0 1.5375 1.025 4.1001 2.5626 5.1251zm-25.113-68.677c2.05 0 10.25 0.51251 13.838 0.51251 7.1752 0 11.788-0.51251 25.113-0.51251 11.275 0 20.501 3.0751 27.163 8.7127 8.2002 7.1752 12.3 16.4 12.3 27.676 0 16.913-8.2002 26.138-15.375 31.776-7.1752 5.6376-17.425 8.7127-31.776 8.7127-7.1752 0-20.5 0-31.263-0.51251-0.51251-1.025 1.025-4.6126 1.5375-5.1251 3.0751-0.51252 3.5876-0.51252 5.1251-1.025 3.0751-1.025 3.0751-2.05 3.0751-6.1502 0.51251-7.1752 0-16.913 0-27.163v-26.651c-0.51251-4.1001-2.05-4.6126-5.1251-5.6376-1.5375-0.51251-4.1001-1.025-7.1752-1.025 0 0 2.05-3.0751 2.5626-3.5876z"/><path class="st1" d="m226.53 373.13c-3.0751-0.51251-4.6126-1.025-7.1752-2.05-0.51252 0-1.025-1.5375-1.025-1.5375v-22.038c0-6.1502-1.025-11.275-3.5876-14.863-3.0751-4.1001-7.1752-6.6627-12.3-6.6627-4.6126 0-11.275 3.0751-16.913 8.2002 0 0-1.025 1.025-1.025-0.51251 0-1.025 0-3.5876 0.51252-5.1251 0-1.5375-1.025-3.0751-1.025-3.0751-3.5876 1.5375-13.325 4.1001-16.913 4.6126-3.0751 0.51252-3.0751 3.0751-0.51251 4.1001 3.0751 1.025 5.1251 2.05 6.6627 3.0751 1.025 1.025 1.025 2.05 1.025 3.0751v27.676c0 2.05-1.025 3.5876-3.0751 4.1001-1.5375 0.51251-3.0751 0.51251-4.6126 1.025-0.51252 0.51252-0.51252 4.1001 0 5.1251 1.025 0 8.2002-0.51251 12.3-0.51251 7.1752 0 11.275 0.51251 12.3 0.51251 1.025-1.025 1.025-4.1001 0.51251-5.1251-2.05 0-3.5876-0.51251-5.1251-1.025-2.05-0.51251-3.0751-1.5375-3.0751-3.5876v-26.651c0-3.0751 0.51251-3.5876 1.5375-4.1001 3.0751-2.05 6.6627-3.5876 10.25-3.5876 3.5876 0 5.6376 1.025 7.1752 3.0751 3.0751 2.05 3.0751 4.6126 3.5876 7.1752 0.51251 4.6126 0.51251 14.35 0.51251 22.038 0 4.6126-0.51251 5.6376-2.05 6.1502-1.025 0.51251-3.0751 1.025-5.1251 1.025-1.025 1.025-0.51252 4.1001 0 5.1251 3.0751 0 7.1752-0.51251 12.3-0.51251 6.6627 0 11.275 0.51251 12.3 0.51251 2.5626-1.5375 3.0751-4.6126 2.5626-5.6376zm30.238-42.026c-5.6376 0-9.7377 4.6126-9.7377 11.788 0 7.1752 3.0751 15.375 12.3 15.375 1.5375 0 4.6126-0.51251 5.6376-2.05 2.05-2.05 3.5876-6.1502 3.5876-10.25 0-9.2252-4.1001-14.863-11.788-14.863zm-0.51251 48.689c-2.05 0-3.5876 0.51251-4.6126 1.025-4.6126 3.0751-6.6627 5.6376-6.6627 9.2252 0 3.0751 1.025 5.6376 4.1001 7.1752 3.0751 2.05 8.2002 4.1001 13.325 4.1001 11.275 0 16.4-6.1502 16.4-11.788 0-4.1001-2.05-7.1752-6.1502-8.7127-4.1001-0.51251-9.7377-1.025-16.4-1.025zm0.51251 28.701c-6.6627 0-11.788-1.5375-15.888-4.6126-4.1001-3.0751-5.6376-7.1752-5.6376-10.763 0-1.025 0-3.0751 2.05-5.6376 1.025-1.5375 4.1001-4.1001 10.25-8.2002 0 0 0.51252 0 0.51252-0.51251 0 0 0-0.51251-0.51252-0.51251-5.1251-2.05-6.6627-5.1251-7.1752-7.1752 0-0.51251-0.51251-1.5375 0.51251-2.05 1.025-0.51251 2.05-1.025 3.0751-2.05 2.05-1.025 4.1001-2.05 5.1251-3.0751 0 0 0-0.51251-0.51251-0.51251-8.2002-3.0751-11.788-8.2002-11.788-16.913 0-5.6376 3.0751-10.763 7.1752-13.838 3.0751-3.0751 10.763-5.6376 15.888-5.6376h0.51252c5.1251 0 8.2002 1.025 12.3 2.05 2.05 1.025 4.1001 1.025 7.1752 1.025 4.1001 0 6.1502-1.5375 7.1752-3.0751 0 0 0.51251 1.025 0.51251 2.05 0 1.5375-0.51251 3.5876-1.5375 5.1251-1.025 1.025-3.0751 2.05-4.6126 2.05h-0.51251c-2.05 0-3.0751-0.51251-3.0751-0.51251h-0.51251v1.025c0 1.025 0.51251 4.1001 0.51251 4.6126 0 9.2252-3.5876 12.3-7.1752 15.888-3.5876 2.05-8.2002 4.6126-12.3 5.1251h-1.5375-1.5375c-1.025 0-3.0751 1.5375-3.0751 3.0751 0 1.5375 1.025 3.5876 5.6376 4.1001h3.0751c6.1502 0.51251 14.35 1.025 18.45 2.05 5.1251 2.05 8.2002 6.1502 8.2002 11.788 0 8.2002-5.6376 15.888-15.375 20.5-5.1251 3.5876-10.25 4.6126-15.375 4.6126zm63.039-76.877c-3.0751 0-4.6126 0.51251-6.1502 1.5375-4.1001 3.0751-6.1502 8.2002-6.1502 15.888 0 14.35 7.1752 24.601 17.425 24.601 3.0751 0 5.6376-1.025 7.1752-3.0751 3.0751-2.05 4.6126-7.1752 4.6126-15.375 0.51251-13.838-6.6627-23.576-16.913-23.576zm2.05 47.151c-18.963 0-25.626-13.838-25.626-26.651 0-9.2252 3.5876-15.888 10.763-21.013 5.1251-3.0751 11.275-5.1251 16.913-5.1251 14.35 0 24.601 10.25 24.601 25.113 0 10.25-4.1001 18.45-11.788 23.576-3.5876 2.05-9.7377 4.1001-14.863 4.1001zm-196.8-47.151c-2.05 0-4.6126 0.51251-6.1502 1.5375-4.1001 3.0751-6.1502 8.2002-6.1502 15.888 0 14.35 7.1752 24.601 17.425 24.601 3.0751 0 5.6376-1.025 7.1752-3.0751 3.0751-2.05 4.6126-7.1752 4.6126-15.375 1.025-13.838-6.6627-23.576-16.913-23.576zm2.05 47.151c-18.963 0-25.626-13.838-25.626-26.651 0-9.2252 3.5876-15.888 10.763-21.013 5.1251-3.0751 11.275-5.1251 16.913-5.1251 14.35 0 24.601 10.25 24.601 25.113 0 10.25-4.1001 18.45-11.788 23.576-3.0751 2.05-9.2252 4.1001-14.863 4.1001zm-126.08-1.025c0-0.51252-0.51251-1.5375-0.51251-2.05 0-1.025 0-1.5375 0.51251-1.5375 2.0501-0.51251 3.5876-0.51251 4.6126-1.025 2.0501-0.51251 3.0751-1.5375 3.0751-4.6126 0.51251-6.6627 0.51251-18.963 0-27.676 0-1.025 0-2.05-1.025-3.0751-1.5375-1.025-4.1001-2.05-6.6627-3.0751-0.51251-1.025-1.025-1.5375-1.025-2.05 0-0.51252 0.51251-1.5375 2.0501-1.5375 3.5876-0.51251 13.325-3.0751 16.913-4.1001 0 0 0.51251 1.025 0.51251 1.5375v1.025 4.1001c0 0.51251 0.51251 1.025 1.025 1.025h0.51251c8.2002-5.6376 13.838-7.1752 17.938-7.1752 5.6376 0 9.7377 2.05 12.3 7.1752h0.51251s0.51251 0 0.51251-0.51252c6.6627-5.1251 12.3-7.1752 17.425-7.1752 10.25 0 16.4 7.1752 16.4 20.5v12.3 9.7377c0 0.51251 1.025 2.05 2.05 2.05 1.5375 1.025 3.5876 1.025 6.1502 1.5375 0 1.025 0 3.5876-0.51251 4.1001h-2.05-8.2002c-6.6627 0-10.25 0-13.838 0.51252 0-1.025-0.51251-3.5876 0-4.1001 2.05-0.51252 3.0751-0.51252 4.1001-1.025 2.05-0.51251 2.05-1.5375 3.0751-4.6126 0-2.05 0.51251-19.988 0-24.088-0.51251-4.6126-4.1001-9.7377-11.275-9.7377-2.05 0-7.1752 1.025-11.275 4.1001l-1.025 1.5375c0.51251 2.05 0.51251 5.1251 0.51251 9.2252v7.1752 13.325c0 2.05 1.5375 3.0751 2.05 3.5876 0.51251 0 1.025 0 1.5375 0.51252 1.025 0 2.05 0.51251 3.5876 1.025v3.0751c0 0.51251-0.51251 1.025-0.51251 1.025h-13.325-7.1752-5.1251s-0.51251-1.025-0.51251-2.05c0-1.025 0-1.5375 0.51251-2.05h1.5375c1.5375 0 3.0751-0.51251 3.5876-0.51251 2.05-0.51251 3.0751-1.5375 3.0751-4.1001 0.51251-5.6376 0.51251-21.526 0-25.113-1.5375-6.1502-5.1251-9.7377-10.763-9.7377-3.5876 0-7.1752 1.5375-11.275 4.1001-0.51251 0.51251-1.025 1.5375-1.025 2.05v6.6627 22.038c0 1.5375 0.51251 3.0751 3.0751 3.5876 0.51251 0 1.5375 0.51251 2.05 0.51251l2.05 0.51251c0 0.51251 0 3.0751-0.51251 4.1001h-4.1001-8.7127-8.7127c-1.5375-1.025-3.0751-1.025-4.1001-1.025z"/><path class="st2" d="m262.41 287.54-7.1752-3.0751s1.025-37.413-12.3-39.976c-9.2252-10.25 1.5375-441.79 33.826-1.5375 0 0-11.275 5.6376-13.325 14.863-2.5626 9.7377-1.025 29.726-1.025 29.726z"/><path class="st3" d="m262.41 287.54-7.1752-3.0751s1.025-37.413-12.3-39.976c-9.2252-10.25 1.5375-441.79 33.826-1.5375 0 0-11.275 5.6376-13.325 14.863-2.5626 9.7377-1.025 29.726-1.025 29.726z"/><path class="st2" d="m266.51 251.16s64.577-42.539 49.201-130.18c-14.35-64.577-48.176-85.077-52.276-92.765-4.1001-5.6376-8.2002-15.888-8.2002-15.888l2.05 178.35c0.51251-0.51251-5.1251 53.814 9.2252 60.476"/><path class="st4" d="m266.51 251.16s64.577-42.539 49.201-130.18c-14.35-64.577-48.176-85.077-52.276-92.765-4.1001-5.6376-8.2002-15.888-8.2002-15.888l2.05 178.35c0.51251-0.51251-5.1251 53.814 9.2252 60.476"/><path class="st2" d="m251.64 253.72s-60.476-41.514-56.889-113.78c3.0751-73.289 46.126-108.65 54.326-114.8 5.6376-5.6376 5.6376-7.1752 6.1502-13.838 3.5876 8.2002 3.0751 120.95 3.5876 134.28 1.025 50.739-3.0751 98.402-7.1752 108.14z"/><path class="st5" d="m251.64 253.72s-60.476-41.514-56.889-113.78c3.0751-73.289 46.126-108.65 54.326-114.8 5.6376-5.6376 5.6376-7.1752 6.1502-13.838 3.5876 8.2002 3.0751 120.95 3.5876 134.28 1.025 50.739-3.0751 98.402-7.1752 108.14z"/></g>
</svg>
