<?xml version="1.0" encoding="UTF-8"?>
<!-- Created with Inkscape (http://www.inkscape.org/) -->
<svg width="512" height="512" version="1.1" viewBox="0 0 512 512" xml:space="preserve" xmlns="http://www.w3.org/2000/svg"><defs><clipPath id="clipPath16"><path d="m0 1309h2500v-1309h-2500z"/></clipPath></defs><g transform="matrix(1.3333 0 0 -1.3333 0 1745.3)"><g transform="matrix(.16996 0 0 .16996 -20.452 1005.1)"><g clip-path="url(#clipPath16)"><g transform="translate(1250 1246.4)"><path d="m0 0c623.9 0 1129.7-263.28 1129.7-588.05 0-324.77-505.77-588.05-1129.7-588.05s-1129.7 263.28-1129.7 588.05c0 324.77 505.77 588.05 1129.7 588.05" fill="#8993be" fill-rule="evenodd"/></g><g transform="translate(1683.3 588.67)"><path d="m0 0 38.691 232.13h100.59c54.163 0 92.845-23.212 92.845-69.634-7.731-131.54-69.633-154.76-139.27-162.5h-92.853zm-208.9-278.54 123.8 626.74h286.28c123.8-7.74 185.71-69.633 185.71-177.97 0-185.7-147.02-294.02-278.55-286.28h-139.28l-30.952-162.49zm-469.81 162.49 123.8 626.73h147.02l-30.951-162.48h139.27c123.8-7.739 170.23-69.633 154.76-147.02l-54.162-317.24h-154.75l54.162 286.28c7.731 38.691 7.731 61.903-46.422 61.903h-116.07l-69.633-348.19zm-358.11 116.06 38.691 232.13h100.58c54.163 0 92.845-23.211 92.845-69.633-7.731-131.54-69.634-154.76-139.27-162.5h-92.855zm-208.91-278.54 123.8 626.74h286.27c123.8-7.74 185.7-69.633 185.7-177.97 0-185.7-147.01-294.02-278.55-286.28h-139.26l-30.951-162.49z" fill="#232531" fill-rule="evenodd"/></g></g></g></g></svg>
