<?xml version="1.0" encoding="UTF-8" standalone="no"?>
<svg
   width="512"
   height="512"
   version="1.1"
   viewBox="0 0 512 512"
   id="svg8"
   sodipodi:docname="logo-laravel.svg"
   inkscape:version="1.1.2 (1:1.1+202202050852+0a00cf5339)"
   xmlns:inkscape="http://www.inkscape.org/namespaces/inkscape"
   xmlns:sodipodi="http://sodipodi.sourceforge.net/DTD/sodipodi-0.dtd"
   xmlns="http://www.w3.org/2000/svg"
   xmlns:svg="http://www.w3.org/2000/svg"
   xmlns:rdf="http://www.w3.org/1999/02/22-rdf-syntax-ns#"
   xmlns:cc="http://creativecommons.org/ns#"
   xmlns:dc="http://purl.org/dc/elements/1.1/">
  <defs
     id="defs12" />
  <sodipodi:namedview
     id="namedview10"
     pagecolor="#ffffff"
     bordercolor="#666666"
     borderopacity="1.0"
     inkscape:pageshadow="2"
     inkscape:pageopacity="0.0"
     inkscape:pagecheckerboard="0"
     showgrid="false"
     inkscape:zoom="1.5390625"
     inkscape:cx="255.67513"
     inkscape:cy="255.67513"
     inkscape:window-width="1920"
     inkscape:window-height="1053"
     inkscape:window-x="0"
     inkscape:window-y="0"
     inkscape:window-maximized="1"
     inkscape:current-layer="svg8" />
  <title
     id="title2">Logomark</title>
  <path
     d="m 474.31268,132.80362 a 7.1219491,7.1219491 0 0 1 0.24649,1.8399 v 96.59174 a 7.0427597,7.0427597 0 0 1 -3.53901,6.10963 l -81.07114,46.67605 v 92.51362 c 0,2.5178 -1.33814,4.84189 -3.52134,6.10962 l -169.22451,97.41791 c -0.38735,0.22009 -0.80991,0.36094 -1.23249,0.5106 -0.15846,0.0528 -0.30812,0.14966 -0.47538,0.19367 a 7.0867929,7.0867929 0 0 1 -3.60941,0 c -0.19367,-0.0528 -0.36973,-0.15846 -0.55461,-0.22888 -0.38735,-0.14086 -0.79231,-0.26411 -1.16209,-0.47539 L 40.979832,382.64418 A 7.0515487,7.0515487 0 0 1 37.44083,376.53456 V 86.759326 c 0,-0.633849 0.08803,-1.250067 0.246498,-1.84869 0.05282,-0.202482 0.176071,-0.387352 0.246498,-0.589834 0.132055,-0.369747 0.255296,-0.748291 0.448971,-1.091601 0.132056,-0.228884 0.325731,-0.413762 0.484189,-0.625042 0.202483,-0.281707 0.387352,-0.572221 0.625043,-0.818719 0.202482,-0.202482 0.466585,-0.352133 0.695469,-0.528204 0.255296,-0.211281 0.48419,-0.440174 0.774703,-0.607439 h 0.0088 L 125.57184,31.94084 a 7.0603378,7.0603378 0 0 1 7.04276,0 l 84.60083,48.708957 h 0.0176 c 0.2817,0.176072 0.5194,0.396158 0.7747,0.598632 0.22889,0.176071 0.48419,0.334529 0.68666,0.528205 0.2465,0.255295 0.42257,0.545809 0.63385,0.827525 0.14966,0.21128 0.35214,0.396158 0.47538,0.625042 0.20249,0.352134 0.31693,0.721881 0.45779,1.091601 0.0704,0.202482 0.19367,0.387352 0.24649,0.598632 a 7.1219491,7.1219491 0 0 1 0.2465,1.839901 V 267.7524 l 70.49791,-40.59226 v -92.52241 c 0,-0.61624 0.088,-1.24128 0.2465,-1.83111 0.0616,-0.21128 0.17607,-0.39616 0.24649,-0.59864 0.14086,-0.36974 0.26411,-0.74829 0.45778,-1.0916 0.13205,-0.22888 0.32572,-0.41376 0.47538,-0.62504 0.21128,-0.28171 0.38736,-0.57222 0.63385,-0.81872 0.20249,-0.20248 0.45778,-0.35213 0.68667,-0.52821 0.26411,-0.21128 0.49299,-0.44017 0.7747,-0.60743 h 0.009 L 379.3923,79.828021 a 7.0515487,7.0515487 0 0 1 7.04276,0 l 84.60083,48.708959 c 0.29931,0.17607 0.5282,0.39615 0.79231,0.59863 0.22008,0.17607 0.47538,0.33453 0.67786,0.5282 0.24649,0.25531 0.42256,0.54582 0.63384,0.82753 0.15847,0.21128 0.35214,0.39616 0.47539,0.62504 0.20248,0.34334 0.31693,0.72188 0.45778,1.0916 0.0792,0.20248 0.19368,0.38736 0.2465,0.59864 z m -13.85683,94.35932 v -80.32232 l -29.60594,17.04374 -40.90076,23.5494 v 80.32232 l 70.51549,-40.59226 z m -84.60083,145.3007 v -80.37505 l -40.23191,22.97723 -114.88177,65.56813 v 81.13267 z M 51.538795,98.956956 V 372.46364 l 155.100495,89.29682 v -81.11509 l -81.0272,-45.8569 -0.0264,-0.0176 -0.0353,-0.0176 c -0.2729,-0.15846 -0.50178,-0.38735 -0.75709,-0.58103 -0.22008,-0.17606 -0.47538,-0.31691 -0.66905,-0.51059 l -0.0176,-0.0264 c -0.2289,-0.22008 -0.38736,-0.49299 -0.58103,-0.73949 -0.17607,-0.23769 -0.38735,-0.44017 -0.52821,-0.68666 l -0.009,-0.0265 c -0.15846,-0.2641 -0.2553,-0.58103 -0.36974,-0.88031 -0.11445,-0.2641 -0.26411,-0.51059 -0.33453,-0.79231 v -0.009 c -0.088,-0.33453 -0.10565,-0.68667 -0.14086,-1.02999 -0.0352,-0.2641 -0.10564,-0.5282 -0.10564,-0.7923 V 139.55607 L 81.145904,115.99787 51.539964,98.971713 Z M 129.09695,46.189212 58.607834,86.763896 129.07938,127.33858 199.55971,86.755107 129.07938,46.189212 Z m 36.65741,253.221538 40.89196,-23.54061 V 98.955198 l -29.60594,17.043742 -40.90075,23.5494 V 316.46328 Z M 382.9056,94.071998 l -70.48033,40.574682 70.48033,40.57469 70.47154,-40.58348 z m -7.05155,93.357372 -40.90076,-23.5494 -29.60594,-17.04374 v 80.32232 l 40.89197,23.54061 29.61473,17.05253 z m -162.17569,181.01064 103.3769,-59.01852 51.67614,-29.49169 -70.4276,-40.54831 -81.08872,46.68483 -73.90455,42.54695 z"
     fill="#ff2d20"
     fill-rule="evenodd"
     stroke-width="8.80312"
     id="path4" />
  <metadata
     id="metadata6">
    <rdf:RDF>
      <cc:Work
         rdf:about="">
        <dc:title>Logomark</dc:title>
      </cc:Work>
    </rdf:RDF>
  </metadata>
</svg>
