<?xml version="1.0" encoding="UTF-8"?>
<!-- Generator: Adobe Illustrator 19.2.1, SVG Export Plug-In . SVG Version: 6.00 Build 0)  -->
<svg width="512" height="512" version="1.1" viewBox="0 0 512 512" xml:space="preserve" xmlns="http://www.w3.org/2000/svg">
<style type="text/css">
	.st0{fill:#A57242;}
	.st1{fill:#002B64;}
	.st2{fill:#C49A6C;}
</style>
<g transform="matrix(1.5059 0 0 1.5059 -7.5294 -7.5261)">
	
		<path id="XMLID_5_" class="st0" d="m231.6 237.1v45h-5.7v-7.7c-5.1 6.2-11 9.2-17.6 9.2s-12.2-2.3-16.8-7c-4.5-4.7-6.8-10.4-6.8-16.9 0-6.6 2.3-12.1 6.9-16.8s10.1-7 16.4-7c7.3 0 13.3 3.1 17.9 9.4v-8.2h5.7m-5.3 22.7c0-5.1-1.7-9.5-5.2-13-3.4-3.6-7.7-5.3-12.7-5.3s-9.2 1.8-12.6 5.5c-3.4 3.6-5.2 7.9-5.2 12.9s1.8 9.3 5.3 13c3.5 3.6 7.7 5.4 12.5 5.4 4.9 0 9.1-1.8 12.6-5.3s5.3-7.9 5.3-13.2"/>
		<path id="XMLID_8_" class="st0" d="m244.6 282.1v-60.8h12.6c8.6 0 15 0.6 19 1.9 4.1 1.2 7.6 3.2 10.5 6 2.9 2.7 5.2 6 6.8 10s2.4 8.6 2.4 13.9-1.2 10.2-3.7 14.9c-2.4 4.6-5.8 8.1-10 10.5s-10.2 3.6-18.1 3.6h-19.5m5.8-5.8h7c7.3 0 12.7-0.4 15.9-1.1 3.3-0.7 6.2-2.2 8.7-4.3 2.5-2.2 4.4-4.9 5.7-8s1.9-6.7 1.9-10.7-0.8-7.7-2.3-11.1-3.6-6.2-6.4-8.4-6-3.7-9.8-4.4c-3.7-0.8-9.2-1.2-16.5-1.2h-4.3l0.1 49.2"/>
		<path id="XMLID_11_" class="st0" d="m166.1 224.6c0-1.3 0.5-2.4 1.4-3.4 1-1 2.1-1.4 3.4-1.4 1.4 0 2.5 0.5 3.4 1.4 1 0.9 1.4 2 1.4 3.4 0 1.3-0.5 2.4-1.4 3.4-0.9 0.9-2 1.4-3.4 1.4-1.3 0-2.4-0.5-3.4-1.4-0.9-1.1-1.4-2.2-1.4-3.4m1.9 12.5h5.8v45h-5.8v-45"/>
		<polyline id="XMLID_12_" class="st0" points="5 282.1 13.6 221.3 14.6 221.3 39.3 271.2 63.9 221.3 64.8 221.3 73.5 282.1 67.5 282.1 61.6 238.6 40.1 282.1 38.5 282.1 16.8 238.2 10.8 282.1 5 282.1"/>
		<path id="XMLID_15_" class="st0" d="m129.2 237.1v45h-5.7v-7.7c-5.1 6.2-11 9.2-17.6 9.2s-12.2-2.3-16.8-7c-4.5-4.7-6.8-10.4-6.8-16.9 0-6.6 2.3-12.1 6.9-16.8s10.1-7 16.4-7c7.3 0 13.3 3.1 17.9 9.4v-8.2h5.7m-5.4 22.7c0-5.1-1.7-9.5-5.2-13-3.4-3.6-7.7-5.3-12.7-5.3s-9.2 1.8-12.6 5.5c-3.4 3.6-5.2 7.9-5.2 12.9s1.8 9.3 5.3 13c3.5 3.6 7.7 5.4 12.5 5.4 4.9 0 9.1-1.8 12.6-5.3 3.6-3.5 5.3-7.9 5.3-13.2"/>
		<path id="XMLID_16_" class="st0" d="m139 237.1h5.9v6.5c1.6-2.7 3.1-4.6 4.6-5.8s3.2-1.9 5-1.9c1.9 0 3.7 0.5 5.6 1.5l-3 4.9c-0.8-0.5-1.7-0.8-2.6-0.8-1.8 0-3.4 0.9-5 2.7-1.5 1.8-2.7 4.2-3.4 7s-1.1 8-1.1 15.5v15.2h-6v-44.8"/>
		<path id="XMLID_20_" class="st0" d="m308.5 221.3h12c6.4 0 11.2 1.3 14.5 3.9 3.3 2.5 5 6.2 5 11 0 2.7-0.7 5.1-2 7.4-1.3 2.2-3.2 4-5.8 5.3 4.2 1.4 7.3 3.4 9.5 6.1s3.3 5.9 3.3 9.7c0 5-1.8 9.2-5.5 12.5s-8.4 4.9-14.2 4.9h-16.8v-60.8m6 5.9v19.5h3.5c5.3 0 9.3-0.8 11.9-2.5s3.9-4.3 3.9-8c0-6-4.1-9-12.2-9h-7.1m0 25.6v23.4h7.5c4.3 0 7.5-0.4 9.6-1.3s3.8-2.3 5.1-4.1c1.3-1.9 1.9-3.8 1.9-5.7s-0.4-3.6-1.1-5.1-1.8-2.8-3.3-3.9c-1.4-1.1-3.1-2-5.2-2.5-2-0.6-5.7-0.8-11.2-0.8h-3.3"/>
	
	
		<path id="XMLID_21_" class="st1" d="m267.7 66.4c-3 0.1-2 1-8.5 2.6s-14.5 1.1-21.6 4.1c-21 8.8-25.2 39-44.4 49.8-14.3 8.1-28.7 8.7-41.7 12.8-8.5 2.7-17.8 8.1-25.6 14.8-6 5.2-6.1 9.7-12.4 16.2-6.7 6.9-26.6 0.1-35.6 10.7 2.9 2.9 4.2 3.8 9.9 3-1.2 2.2-8.2 4.1-6.8 7.4 1.4 3.5 18.3 5.8 33.7-3.4 7.2-4.3 12.9-10.5 24-12 14.4-1.9 31 1.2 47.7 3.6-2.5 7.4-7.4 12.3-11.4 18.2-1.2 1.3 2.5 1.5 6.7 0.7 7.6-1.9 13.1-3.4 18.8-6.7 7.1-4.1 8.1-14.6 16.8-16.9 4.8 7.4 17.9 9.2 26.1 3.2-7.1-2-9.1-17.2-6.7-23.9 2.3-6.3 4.5-16.5 6.8-24.9 2.5-9 3.4-20.4 6.4-24.9 4.5-6.9 9.5-9.3 13.8-13.2s8.3-7.7 8.1-16.6c0.1-3.1-1.3-4.7-4.1-4.6z"/>
		<path id="XMLID_22_" class="st2" d="m84.2 187c10.9 1.6 17.6 0 26.4-3.8 7.5-3.2 14.7-9.9 23.5-12.8 13-4.2 27.2 0 41 0.8 3.4 0.2 6.7 0.2 10-0.2 5.2-3.2 5.1-15 10.1-16.1-0.1 16.7-7 26.6-14.1 36.3 15-2.7 24.1-11.4 30.1-23 1.8-3.5 3.4-7.3 4.8-11.3 2.2 1.7 0.9 6.7 2 9.4 10.4-5.8 16.3-19 20.2-32.3 4.5-15.4 6.4-31 9.3-35.6 2.9-4.5 7.3-7.2 11.4-10.1 4.6-3.2 8.7-6.6 9.5-12.8-4.9-0.5-6-1.6-6.7-4-2.4 1.4-4.7 1.7-7.2 1.7-2.2 0.1-4.6 0-7.6 0.3-24.4 2.5-27.5 29.4-43.2 44.7-1.1 1.1-2.4 2.1-3.7 3.1-5.5 4.1-12.2 7-18.4 9.4-10 3.8-19.5 4.1-28.9 7.4-6.9 2.4-13.9 5.9-19.6 9.8-1.4 1-2.7 2-4 3-3.3 2.7-5.5 5.7-7.6 8.8-2.2 3.2-4.3 6.5-7.5 9.6-5.2 5.1-24.6 1.5-31.4 6.2-0.8 0.5-1.4 1.2-1.8 1.9 3.7 1.7 6.2 0.7 10.5 1.1 0.9 4.2-8.5 6.7-7.1 8.5z"/>
		<path id="XMLID_23_" class="st2" d="m232.1 157.8c0.3 4.7 3 13.9 5.4 16.2-4.7 1.1-12.7-0.7-14.8-4 1-4.9 6.6-9.2 9.4-12.2z"/>
		<path id="XMLID_24_" class="st1" d="m238.9 83.8c3.5 3 10.7 0.6 9.4-5.4-5.3-0.5-8.4 1.4-9.4 5.4z"/>
		<path id="XMLID_25_" class="st1" d="m263 76.8c-0.9 1.9-2.7 4.4-2.7 9.3 0 0.8-0.6 1.4-0.7 0.1 0-4.8 1.3-6.9 2.7-9.6 0.7-1.1 1.1-0.6 0.7 0.2z"/>
		<path id="XMLID_26_" class="st1" d="m262.1 76.1c-1.1 1.8-3.7 5.2-4.1 10.1-0.1 0.8-0.8 1.4-0.7 0.1 0.5-4.8 2.6-7.8 4.1-10.4 0.8-1.1 1.1-0.6 0.7 0.2z"/>
		<path id="XMLID_27_" class="st1" d="m261.3 75.1c-1.2 1.7-5.3 5.8-6.1 10.6-0.2 0.8-0.9 1.3-0.7 0 0.9-4.7 4.3-8.4 6.1-10.9 0.8-1 1.1-0.4 0.7 0.3z"/>
		<path id="XMLID_28_" class="st1" d="m260.5 74c-1.5 1.6-6.3 6.7-7.8 11.4-0.3 0.8-1 1.2-0.7-0.1 1.5-4.5 5.7-9.4 7.8-11.6 1.1-0.9 1.3-0.3 0.7 0.3z"/>
	
</g>
</svg>
