<?xml version="1.0" encoding="UTF-8" standalone="no"?>
<svg
   width="512"
   height="512"
   version="1.1"
   viewBox="0 0 512 512"
   id="svg8"
   sodipodi:docname="logo-javascript.svg"
   inkscape:version="1.1.2 (1:1.1+202202050852+0a00cf5339)"
   xmlns:inkscape="http://www.inkscape.org/namespaces/inkscape"
   xmlns:sodipodi="http://sodipodi.sourceforge.net/DTD/sodipodi-0.dtd"
   xmlns="http://www.w3.org/2000/svg"
   xmlns:svg="http://www.w3.org/2000/svg">
  <defs
     id="defs12" />
  <sodipodi:namedview
     id="namedview10"
     pagecolor="#ffffff"
     bordercolor="#666666"
     borderopacity="1.0"
     inkscape:pageshadow="2"
     inkscape:pageopacity="0.0"
     inkscape:pagecheckerboard="0"
     showgrid="false"
     inkscape:zoom="1.5390625"
     inkscape:cx="255.67513"
     inkscape:cy="255.67513"
     inkscape:window-width="1920"
     inkscape:window-height="1053"
     inkscape:window-x="0"
     inkscape:window-y="0"
     inkscape:window-maximized="1"
     inkscape:current-layer="svg8" />
  <g
     stroke-width="0.8127"
     id="g6"
     transform="matrix(0.87890625,0,0,0.87890625,31,31)">
    <rect
       width="512"
       height="512"
       fill="#f7df1e"
       id="rect2"
       x="0"
       y="0" />
    <path
       d="m 343.93,400 c 10.313,16.839 23.731,29.217 47.462,29.217 19.935,0 32.67,-9.9637 32.67,-23.731 0,-16.498 -13.084,-22.341 -35.027,-31.939 l -12.028,-5.1606 c -34.718,-14.791 -57.783,-33.321 -57.783,-72.493 0,-36.084 27.494,-63.553 70.461,-63.553 30.59,0 52.582,10.646 68.429,38.522 l -37.465,24.056 c -8.2489,-14.791 -17.148,-20.618 -30.964,-20.618 -14.092,0 -23.024,8.9397 -23.024,20.618 0,14.434 8.9397,20.277 29.582,29.216 l 12.028,5.1525 c 40.879,17.53 63.959,35.401 63.959,75.581 0,43.317 -34.028,67.048 -79.726,67.048 -44.682,0 -73.549,-21.293 -87.674,-49.201 z m -169.96,4.1691 c 7.5581,13.41 14.434,24.747 30.964,24.747 15.807,0 25.779,-6.1846 25.779,-30.232 v -163.6 h 48.112 v 164.25 c 0,49.818 -29.208,72.493 -71.843,72.493 -38.522,0 -60.83,-19.935 -72.176,-43.947 z"
       id="path4" />
  </g>
</svg>
