<?xml version="1.0" encoding="UTF-8" standalone="no"?>
<!-- Created with Inkscape (http://www.inkscape.org/) -->

<svg
   width="64.758804mm"
   height="25.4mm"
   viewBox="0 0 229.46037 90.000012"
   id="svg2"
   version="1.1"
   inkscape:version="1.1.2 (1:1.1+202202050852+0a00cf5339)"
   sodipodi:docname="logo.svg"
   xmlns:inkscape="http://www.inkscape.org/namespaces/inkscape"
   xmlns:sodipodi="http://sodipodi.sourceforge.net/DTD/sodipodi-0.dtd"
   xmlns="http://www.w3.org/2000/svg"
   xmlns:svg="http://www.w3.org/2000/svg"
   xmlns:rdf="http://www.w3.org/1999/02/22-rdf-syntax-ns#"
   xmlns:cc="http://creativecommons.org/ns#"
   xmlns:dc="http://purl.org/dc/elements/1.1/">
  <defs
     id="defs4" />
  <sodipodi:namedview
     id="base"
     pagecolor="#ffffff"
     bordercolor="#666666"
     borderopacity="1.0"
     inkscape:pageopacity="0.0"
     inkscape:pageshadow="2"
     inkscape:zoom="1.8343182"
     inkscape:cx="-24.804857"
     inkscape:cy="146.37591"
     inkscape:document-units="px"
     inkscape:current-layer="layer3"
     showgrid="false"
     fit-margin-top="0"
     fit-margin-left="0"
     fit-margin-right="0"
     fit-margin-bottom="0"
     inkscape:window-width="1920"
     inkscape:window-height="1053"
     inkscape:window-x="0"
     inkscape:window-y="0"
     inkscape:window-maximized="1"
     inkscape:pagecheckerboard="0"
     showguides="true"
     inkscape:guide-bbox="true" />
  <metadata
     id="metadata7">
    <rdf:RDF>
      <cc:Work
         rdf:about="">
        <dc:format>image/svg+xml</dc:format>
        <dc:type
           rdf:resource="http://purl.org/dc/dcmitype/StillImage" />
      </cc:Work>
    </rdf:RDF>
  </metadata>
  <g
     inkscape:label="Capa 1"
     inkscape:groupmode="layer"
     id="layer1"
     transform="translate(-531.52144,-155.67285)"
     style="display:inline" />
  <g
     inkscape:groupmode="layer"
     id="layer3"
     inkscape:label="Texto"
     style="display:inline"
     transform="translate(-270.73307,-82.421793)">
    <g
       id="g877"
       transform="matrix(1.0506294,0,0,1.0506294,-13.707048,-4.172966)">
      <g
         id="g13050"
         transform="matrix(0.65062185,0,0,0.65062185,126.95977,13.300359)"
         style="display:inline">
        <path
           style="fill:#ed8079;stroke-width:0.592307"
           d="m 234.11237,224.49994 -13.1341,-13.14931 v -26.28001 -26.28001 l 26.28361,-26.27579 26.28361,-26.27579 26.28361,26.27579 26.28361,26.27579 v 26.29523 26.29524 l -13.14932,13.13409 -13.1493,13.13409 h -26.28382 -26.28382 z m 52.05859,-26.45322 12.94873,-12.94874 -12.97992,-12.96489 -12.97991,-12.9649 -12.94106,12.95692 -12.94105,12.95693 12.94084,12.95671 c 7.11746,7.12619 12.95497,12.95671 12.97223,12.95671 0.0172,0 5.85833,-5.82693 12.98014,-12.94874 z"
           id="path13064"
           inkscape:connector-curvature="0"
           sodipodi:nodetypes="cccccccccccccccscccccsss" />
        <path
           style="fill:#9b9c9d;stroke-width:0.592307"
           d="M 234.16676,224.5344 220.97827,211.41955 V 185.47527 159.531 l 26.28358,-26.27577 26.28358,-26.27576 25.91345,25.90551 25.91345,25.90552 v 26.29528 26.2953 l -13.14932,13.13409 -13.14931,13.13409 h -25.85923 -25.85922 z m 52.71357,-26.53165 12.94877,-12.99269 -13.269,-12.97602 -13.26899,-12.97602 -13.00934,13.00934 -13.00935,13.00935 12.94351,12.95937 c 7.11892,7.12766 13.11722,12.95938 13.32956,12.95938 0.21234,0 6.21301,-5.84672 13.33484,-12.99271 z"
           id="path13062"
           inkscape:connector-curvature="0"
           sodipodi:nodetypes="cccccccccccccccscccccsss" />
        <path
           style="fill:#e7574e;stroke-width:0.592307"
           d="M 234.16676,224.5344 220.97827,211.41955 V 185.47527 159.531 l 26.28358,-26.27577 26.28358,-26.27576 25.91345,25.90551 25.91345,25.90552 v 26.29528 26.2953 l -13.14932,13.13409 -13.14931,13.13409 h -25.85923 -25.85922 z m 52.7083,-26.49832 12.9435,-12.95937 -13.13654,-13.13653 -13.13653,-13.13654 -13.13653,13.13654 -13.13654,13.13653 12.94351,12.95937 c 7.11892,7.12766 13.11722,12.95938 13.32956,12.95938 0.21234,0 6.21064,-5.83172 13.32957,-12.95938 z"
           id="path13060"
           inkscape:connector-curvature="0"
           sodipodi:nodetypes="cccccccccccccccscccccsss" />
        <path
           style="fill:#6e6f71;stroke-width:0.592307"
           d="m 234.49027,224.35506 -12.77161,-12.48769 v -26.33105 -26.33105 l 1.7332,0.65896 1.73321,0.65897 23.98819,-23.99672 23.9882,-23.9967 10.01167,9.99252 10.01169,9.99252 h 2.94444 2.94444 l 13.14932,13.13409 13.14931,13.13409 v 26.29926 26.29925 l -12.77933,12.76369 -12.77934,12.76367 -26.27589,-0.0331 -26.27589,-0.0331 -12.77161,-12.48769 z m 52.38479,-26.31898 12.9435,-12.95937 -13.13654,-13.13653 -13.13653,-13.13654 -13.13653,13.13654 -13.13654,13.13653 12.94351,12.95937 c 7.11892,7.12766 13.11722,12.95938 13.32956,12.95938 0.21234,0 6.21064,-5.83172 13.32957,-12.95938 z"
           id="path13058"
           inkscape:connector-curvature="0"
           sodipodi:nodetypes="ccccccccccccccccccccccscccccsss" />
        <path
           style="fill:#e23026;stroke-width:0.592307"
           d="m 234.48233,224.12954 -12.76367,-12.77933 v -26.07247 -26.07247 l 1.7332,0.65896 1.73321,0.65897 23.98819,-23.99672 23.9882,-23.9967 10.01167,9.99252 10.01169,9.99252 h 2.94444 2.94444 l 13.14932,13.13409 13.14931,13.13409 v 26.29926 26.29925 L 312.593,224.1452 299.81366,236.90887 h -26.28382 -26.28383 z m 52.39273,-26.09346 12.9435,-12.95937 -13.13654,-13.13653 -13.13653,-13.13654 -13.13653,13.13654 -13.13654,13.13653 12.94351,12.95937 c 7.11892,7.12766 13.11722,12.95938 13.32956,12.95938 0.21234,0 6.21064,-5.83172 13.32957,-12.95938 z"
           id="path13056"
           inkscape:connector-curvature="0" />
        <path
           style="fill:#ac0715;stroke-width:0.592307"
           d="m 234.30517,223.95217 -12.94084,-12.95671 12.94095,-12.95682 12.94095,-12.95682 12.77944,12.76379 c 7.02869,7.02008 12.77944,13.1042 12.77944,13.52028 0,0.74016 -24.459,25.54298 -25.18891,25.54298 -0.20361,0 -6.19357,-5.83051 -13.31103,-12.9567 z m 52.37675,-52.01711 -13.13686,-13.15208 12.95959,-12.94371 12.95959,-12.94371 13.13653,13.13653 13.13654,13.13653 -12.95927,12.95926 -12.95926,12.95927 z"
           id="path13054"
           inkscape:connector-curvature="0" />
        <path
           style="fill:#77040e;stroke-width:0.592307"
           d="m 224.29308,213.93965 -2.90664,-2.97665 12.47706,-12.38519 c 6.86237,-6.81186 12.21494,-11.88544 11.89458,-11.27462 -0.8036,1.53222 -17.51443,28.37292 -18.0919,29.05894 l -0.46648,0.55418 z m 52.22469,-52.1686 c -1.37548,-1.41914 -2.35706,-2.73897 -2.18129,-2.93298 1.23107,-1.35872 23.96199,-24.1021 24.08891,-24.1021 0.0881,0 -4.0186,6.66345 -9.12593,14.80767 -5.10734,8.14422 -9.50988,14.80767 -9.78343,14.80767 -0.27356,0 -1.62277,-1.16112 -2.99826,-2.58026 z"
           id="path13052"
           inkscape:connector-curvature="0" />
      </g>
      <g
         transform="matrix(0.55054376,0,0,0.63723765,316.10899,-63.243158)"
         style="font-style:normal;font-weight:normal;font-size:74.7169px;line-height:125%;font-family:sans-serif;letter-spacing:0px;word-spacing:0px;fill:#6e6f71;fill-opacity:1;stroke:none;stroke-width:1px;stroke-linecap:butt;stroke-linejoin:miter;stroke-opacity:1"
         id="text13068">
        <path
           d="M 101.44254,335.93851 H 62.259952 V 281.61553 H 76.26937 v 43.81591 h 25.17317 z"
           style="font-style:normal;font-variant:normal;font-weight:bold;font-stretch:normal;font-family:sans-serif;-inkscape-font-specification:'sans-serif Bold'"
           id="path13173"
           inkscape:connector-curvature="0" />
        <path
           d="m 150.98627,315.47162 q 0,10.10576 -5.91023,15.94301 -5.87374,5.80078 -16.52673,5.80078 -10.653,0 -16.56322,-5.80078 -5.87374,-5.83725 -5.87374,-15.94301 0,-10.17871 5.91022,-15.97949 5.94671,-5.80077 16.52674,-5.80077 10.72596,0 16.56322,5.83725 5.87374,5.83726 5.87374,15.94301 z m -16.16191,9.95982 q 1.2769,-1.56876 1.89711,-3.75773 0.65669,-2.22546 0.65669,-6.12912 0,-3.6118 -0.65669,-6.05616 -0.65669,-2.44435 -1.82414,-3.90366 -1.16745,-1.4958 -2.80918,-2.11601 -1.64173,-0.62021 -3.53884,-0.62021 -1.89711,0 -3.39291,0.51076 -1.45931,0.51076 -2.80918,2.04304 -1.20393,1.42284 -1.93359,3.90367 -0.69317,2.48083 -0.69317,6.23857 0,3.35642 0.62021,5.83726 0.6202,2.44435 1.82414,3.94014 1.16745,1.42284 2.7727,2.07953 1.64173,0.65669 3.72125,0.65669 1.78766,0 3.3929,-0.58373 1.64173,-0.6202 2.7727,-2.04304 z"
           style="font-style:normal;font-variant:normal;font-weight:bold;font-stretch:normal;font-family:sans-serif;-inkscape-font-specification:'sans-serif Bold'"
           id="path13175"
           inkscape:connector-curvature="0" />
        <path
           d="m 190.16886,307.48188 h -1.16746 q -0.8391,-0.29187 -2.69973,-0.4378 -1.86062,-0.14593 -3.10104,-0.14593 -2.80918,0 -4.96167,0.36483 -2.15249,0.36483 -4.63332,1.24042 v 27.43511 h -13.13383 v -40.97025 h 13.13383 v 6.01967 q 4.34146,-3.72125 7.55195,-4.92519 3.21049,-1.24042 5.91022,-1.24042 0.69318,0 1.56877,0.0365 0.87558,0.0365 1.53228,0.10945 v 12.51362 z"
           style="font-style:normal;font-variant:normal;font-weight:bold;font-stretch:normal;font-family:sans-serif;-inkscape-font-specification:'sans-serif Bold'"
           id="path13177"
           inkscape:connector-curvature="0" />
        <path
           d="M 238.03437,317.87949 H 207.9725 q 0.29186,4.81574 3.64828,7.36954 3.39291,2.5538 9.95983,2.5538 4.15904,0 8.06271,-1.4958 3.90366,-1.4958 6.1656,-3.21049 h 1.45931 v 10.54355 q -4.4509,1.78766 -8.39105,2.59028 -3.94015,0.80262 -8.71941,0.80262 -12.3312,0 -18.89812,-5.54539 -6.56691,-5.5454 -6.56691,-15.79708 0,-10.14223 6.20208,-16.05246 6.23857,-5.9467 17.07398,-5.9467 9.99631,0 15.03094,5.07111 5.03463,5.03464 5.03463,14.52018 z m -13.06086,-7.69788 q -0.10945,-4.12256 -2.04304,-6.20209 Q 220.99688,301.9 216.9108,301.9 q -3.79422,0 -6.23857,1.97007 -2.44435,1.97008 -2.73621,6.31154 z"
           style="font-style:normal;font-variant:normal;font-weight:bold;font-stretch:normal;font-family:sans-serif;-inkscape-font-specification:'sans-serif Bold'"
           id="path13179"
           inkscape:connector-curvature="0" />
        <path
           d="m 287.3592,306.89815 v 29.04036 h -13.2068 v -20.46689 q 0,-2.99159 -0.14593,-5.07111 -0.14593,-2.11601 -0.80262,-3.42939 -0.65669,-1.31339 -2.00656,-1.89711 -1.31338,-0.62021 -3.72125,-0.62021 -1.93359,0 -3.75774,0.80262 -1.82414,0.76614 -3.28345,1.64173 v 29.04036 h -13.13383 v -40.97025 h 13.13383 v 4.52387 q 3.3929,-2.66325 6.49394,-4.15905 3.10105,-1.49579 6.85878,-1.49579 4.0496,0 7.15064,1.82414 3.10105,1.78766 4.85222,5.29001 3.94015,-3.31994 7.6614,-5.21704 3.72126,-1.89711 7.29658,-1.89711 6.63988,0 10.06926,3.97663 3.46588,3.97663 3.46588,11.45562 v 26.66897 h -13.2068 v -20.46689 q 0,-3.02807 -0.14593,-5.1076 -0.10945,-2.07952 -0.76614,-3.3929 -0.62021,-1.31339 -1.97007,-1.89711 -1.34987,-0.62021 -3.79422,-0.62021 -1.64173,0 -3.21049,0.58373 -1.56877,0.54724 -3.8307,1.86062 z"
           style="font-style:normal;font-variant:normal;font-weight:bold;font-stretch:normal;font-family:sans-serif;-inkscape-font-specification:'sans-serif Bold'"
           id="path13181"
           inkscape:connector-curvature="0" />
      </g>
      <g
         transform="matrix(0.43750002,0,0,0.42735335,375.51086,-5.9281328)"
         style="font-style:normal;font-weight:normal;font-size:25.8139px;line-height:125%;font-family:sans-serif;letter-spacing:0px;word-spacing:0px;fill:#6e6f71;fill-opacity:1;stroke:none;stroke-width:1px;stroke-linecap:butt;stroke-linejoin:miter;stroke-opacity:1"
         id="text13072">
        <path
           d="m 96.722257,406.80222 v -22.5844 h 2.988658 v 22.5844 z"
           style="font-style:normal;font-variant:normal;font-weight:normal;font-stretch:normal;font-size:31.5504px;font-family:Arial;-inkscape-font-specification:Arial;letter-spacing:16.1997px"
           id="path13162"
           inkscape:connector-curvature="0" />
        <path
           d="m 121.16386,406.80222 v -22.5844 h 8.51921 q 2.2492,0 3.43542,0.21568 1.66379,0.27729 2.78839,1.06297 1.12459,0.77028 1.80243,2.17217 0.69325,1.4019 0.69325,3.08109 0,2.88082 -1.83325,4.88353 -1.83325,1.98731 -6.62434,1.98731 h -5.79245 v 9.18165 z m 2.98866,-11.8468 h 5.83866 q 2.89623,0 4.11326,-1.07838 1.21703,-1.07838 1.21703,-3.03487 0,-1.41731 -0.72406,-2.41866 -0.70865,-1.01676 -1.87946,-1.34028 -0.75487,-0.20027 -2.78839,-0.20027 h -5.77704 z"
           style="font-style:normal;font-variant:normal;font-weight:normal;font-stretch:normal;font-size:31.5504px;font-family:Arial;-inkscape-font-specification:Arial;letter-spacing:16.1997px"
           id="path13164"
           inkscape:connector-curvature="0" />
        <path
           d="m 157.42144,399.54625 2.8192,-0.24649 q 0.20027,1.6946 0.92433,2.78839 0.73946,1.07838 2.28,1.75622 1.54055,0.66243 3.46623,0.66243 1.71001,0 3.01947,-0.50838 1.30946,-0.50838 1.94109,-1.38649 0.64703,-0.89351 0.64703,-1.94109 0,-1.06297 -0.61622,-1.84865 -0.61622,-0.80108 -2.03352,-1.34027 -0.90892,-0.35433 -4.02083,-1.09379 -3.1119,-0.75487 -4.35974,-1.4173 -1.61757,-0.8473 -2.41866,-2.09514 -0.78567,-1.26325 -0.78567,-2.8192 0,-1.71001 0.97054,-3.18893 0.97054,-1.49433 2.8346,-2.2646 1.86406,-0.77028 4.14407,-0.77028 2.51109,0 4.42137,0.81649 1.92568,0.80109 2.95784,2.37244 1.03217,1.57136 1.1092,3.55866 l -2.86542,0.21568 q -0.23108,-2.14136 -1.57136,-3.23515 -1.32486,-1.09378 -3.92839,-1.09378 -2.71136,0 -3.9592,1.00135 -1.23243,0.98595 -1.23243,2.38785 0,1.21703 0.87811,2.00271 0.8627,0.78567 4.49839,1.61757 3.65109,0.81649 5.00677,1.43271 1.9719,0.90892 2.91163,2.31081 0.93974,1.38649 0.93974,3.20434 0,1.80244 -1.03217,3.4046 -1.03217,1.58676 -2.97325,2.48028 -1.92568,0.87811 -4.34434,0.87811 -3.06569,0 -5.14542,-0.89351 -2.06433,-0.89352 -3.25055,-2.68055 -1.17082,-1.80244 -1.23244,-4.06704 z"
           style="font-style:normal;font-variant:normal;font-weight:normal;font-stretch:normal;font-size:31.5504px;font-family:Arial;-inkscape-font-specification:Arial;letter-spacing:16.1997px"
           id="path13166"
           inkscape:connector-curvature="0" />
        <path
           d="m 210.53259,384.21782 h 2.98866 v 13.04842 q 0,3.4046 -0.77028,5.40731 -0.77027,2.00271 -2.78838,3.26596 -2.00271,1.24784 -5.26867,1.24784 -3.17352,0 -5.19164,-1.09379 -2.01811,-1.09378 -2.88082,-3.15811 -0.8627,-2.07974 -0.8627,-5.66921 v -13.04842 h 2.98866 v 13.03301 q 0,2.94245 0.53919,4.34434 0.55459,1.38649 1.87946,2.14136 1.34028,0.75487 3.26596,0.75487 3.29677,0 4.69866,-1.49433 1.4019,-1.49433 1.4019,-5.74624 z"
           style="font-style:normal;font-variant:normal;font-weight:normal;font-stretch:normal;font-size:31.5504px;font-family:Arial;-inkscape-font-specification:Arial;letter-spacing:16.1997px"
           id="path13168"
           inkscape:connector-curvature="0" />
        <path
           d="m 234.61986,406.80222 v -22.5844 h 4.49839 l 5.34569,15.99086 q 0.73946,2.23379 1.07838,3.34298 0.38514,-1.23243 1.20163,-3.62028 l 5.40731,-15.71356 h 4.02083 v 22.5844 h -2.88082 v -18.9025 l -6.56273,18.9025 h -2.69595 l -6.53191,-19.22601 v 19.22601 z"
           style="font-style:normal;font-variant:normal;font-weight:normal;font-stretch:normal;font-size:31.5504px;font-family:Arial;-inkscape-font-specification:Arial;letter-spacing:16.1997px"
           id="path13170"
           inkscape:connector-curvature="0" />
      </g>
    </g>
  </g>
</svg>
