<?xml version="1.0" encoding="UTF-8" standalone="no"?>
<!-- Created with Inkscape (http://www.inkscape.org/) -->

<svg
   width="39.158283mm"
   height="39.158283mm"
   viewBox="0 0 39.158283 39.158283"
   version="1.1"
   id="svg1"
   xmlns="http://www.w3.org/2000/svg"
   xmlns:svg="http://www.w3.org/2000/svg">
  <defs
     id="defs1" />
  <g
     id="layer1"
     transform="translate(-104.91,-148.5)">
    <g
       transform="matrix(0.264583,0,0,0.264583,104.91,148.5)"
       id="g2">
      <rect
         x="0"
         y="0"
         width="148"
         height="148"
         style="fill:#ffffff;stroke:none"
         id="rect1" />
      <g
         style="fill:#000000;stroke:none"
         id="g1">
        <path
           d="m 127.6,132 h -3.2 c -0.221,0 -0.4,-0.179 -0.4,-0.4 V 124 h 4 v 7.6 c 0,0.221 -0.179,0.4 -0.4,0.4 z m -12,0 h -11.2 c -0.221,0 -0.4,-0.179 -0.4,-0.4 V 128 h 12 v 3.6 c 0,0.221 -0.179,0.4 -0.4,0.4 z m -16,0 H 88.4 c -0.2209,0 -0.4,-0.179 -0.4,-0.4 v -3.2 c 0,-0.221 0.1791,-0.4 0.4,-0.4 h 7.2 c 0.2209,0 0.4,-0.179 0.4,-0.4 V 124 h 3.6 c 0.2209,0 0.4,-0.179 0.4,-0.4 v -3.2 c 0,-0.221 -0.1791,-0.4 -0.4,-0.4 h -3.2 c -0.2209,0 -0.4,0.179 -0.4,0.4 v 3.6 h -3.6 c -0.2209,0 -0.4,-0.179 -0.4,-0.4 v -7.2 c 0,-0.221 0.1791,-0.4 0.4,-0.4 h 3.2 c 0.2209,0 0.4,-0.179 0.4,-0.4 v -3.2 C 96,112.179 95.8209,112 95.6,112 H 88 v -7.6 C 88,104.179 87.8209,104 87.6,104 H 80.4 C 80.1791,104 80,103.821 80,103.6 V 96 h 3.6 C 83.8209,96 84,95.8209 84,95.6 V 92.4 C 84,92.1791 83.8209,92 83.6,92 H 80.4 C 80.1791,92 80,92.1791 80,92.4 V 96 H 76 V 92.4 C 76,92.1791 75.8209,92 75.6,92 H 68.4 C 68.1791,92 68,92.1791 68,92.4 V 108 h -7.6 c -0.2209,0 -0.4,-0.179 -0.4,-0.4 v -3.2 c 0,-0.221 0.1791,-0.4 0.4,-0.4 h 3.2 c 0.2209,0 0.4,-0.179 0.4,-0.4 v -3.2 C 64,100.179 63.8209,100 63.6,100 H 56.4 C 56.1791,100 56,99.8209 56,99.6 V 96.4 C 56,96.1791 55.8209,96 55.6,96 H 52 V 84 h 3.6 C 55.8209,84 56,83.8209 56,83.6 V 80 h 8 v 4 H 60.4 C 60.1791,84 60,84.1791 60,84.4 V 88 H 56.4 C 56.1791,88 56,88.1791 56,88.4 v 3.2 c 0,0.2209 0.1791,0.4 0.4,0.4 H 60 v 3.6 c 0,0.2209 0.1791,0.4 0.4,0.4 h 3.2 C 63.8209,96 64,95.8209 64,95.6 V 92.4 C 64,92.1791 63.8209,92 63.6,92 H 60 v -4 h 3.6 C 63.8209,88 64,87.8209 64,87.6 V 84 h 3.6 C 67.8209,84 68,83.8209 68,83.6 V 80 h 4 v 3.6 c 0,0.2209 0.1791,0.4 0.4,0.4 h 7.2 c 0.2209,0 0.4,0.1791 0.4,0.4 v 3.2 c 0,0.2209 0.1791,0.4 0.4,0.4 h 3.2 C 83.8209,88 84,87.8209 84,87.6 V 84.4 C 84,84.1791 84.1791,84 84.4,84 H 88 v 7.6 c 0,0.2209 0.1791,0.4 0.4,0.4 h 7.2 c 0.2209,0 0.4,0.1791 0.4,0.4 V 96 H 88.4 C 88.1791,96 88,96.1791 88,96.4 v 3.2 c 0,0.2209 0.1791,0.4 0.4,0.4 h 3.2 c 0.2209,0 0.4,0.179 0.4,0.4 v 3.2 c 0,0.221 0.1791,0.4 0.4,0.4 h 3.2 c 0.2209,0 0.4,-0.179 0.4,-0.4 V 96 h 7.6 c 0.221,0 0.4,-0.1791 0.4,-0.4 V 92 h 3.6 c 0.221,0 0.4,-0.1791 0.4,-0.4 v -7.2 c 0,-0.2209 0.179,-0.4 0.4,-0.4 h 3.6 v 3.6 c 0,0.2209 0.179,0.4 0.4,0.4 h 3.6 v 3.6 c 0,0.2209 -0.179,0.4 -0.4,0.4 h -3.2 c -0.221,0 -0.4,0.1791 -0.4,0.4 v 3.2 c 0,0.2209 0.179,0.4 0.4,0.4 h 7.2 c 0.221,0 0.4,-0.1791 0.4,-0.4 V 88.4 C 120,88.1791 119.821,88 119.6,88 H 116 V 84.4 C 116,84.1791 115.821,84 115.6,84 H 112 v -3.6 c 0,-0.2209 -0.179,-0.4 -0.4,-0.4 h -3.2 C 108.179,80 108,79.8209 108,79.6 V 76 h 3.6 c 0.221,0 0.4,-0.1791 0.4,-0.4 v -3.2 c 0,-0.2209 0.179,-0.4 0.4,-0.4 h 3.2 c 0.221,0 0.4,0.1791 0.4,0.4 v 7.2 c 0,0.2209 0.179,0.4 0.4,0.4 h 3.2 c 0.221,0 0.4,0.1791 0.4,0.4 v 3.2 c 0,0.2209 0.179,0.4 0.4,0.4 h 3.2 c 0.221,0 0.4,-0.1791 0.4,-0.4 v -7.2 c 0,-0.2209 -0.179,-0.4 -0.4,-0.4 h -3.2 c -0.221,0 -0.4,-0.1791 -0.4,-0.4 v -7.2 c 0,-0.2209 -0.179,-0.4 -0.4,-0.4 h -3.2 c -0.221,0 -0.4,-0.1791 -0.4,-0.4 v -3.2 c 0,-0.2209 0.179,-0.4 0.4,-0.4 h 7.2 c 0.221,0 0.4,0.1791 0.4,0.4 v 3.2 c 0,0.2209 0.179,0.4 0.4,0.4 h 7.2 c 0.221,0 0.4,0.1791 0.4,0.4 v 7.2 c 0,0.2209 -0.179,0.4 -0.4,0.4 h -3.2 c -0.221,0 -0.4,0.1791 -0.4,0.4 v 11.2 c 0,0.2209 -0.179,0.4 -0.4,0.4 h -3.2 c -0.221,0 -0.4,0.1791 -0.4,0.4 v 11.2 c 0,0.2209 0.179,0.4 0.4,0.4 h 7.2 c 0.221,0 0.4,0.179 0.4,0.4 v 3.2 c 0,0.221 -0.179,0.4 -0.4,0.4 h -3.2 c -0.221,0 -0.4,0.179 -0.4,0.4 v 7.2 c 0,0.221 0.179,0.4 0.4,0.4 h 3.2 c 0.221,0 0.4,0.179 0.4,0.4 v 11.2 c 0,0.221 -0.179,0.4 -0.4,0.4 H 128 v -7.6 c 0,-0.221 -0.179,-0.4 -0.4,-0.4 H 120 v -4 h 3.6 c 0.221,0 0.4,-0.179 0.4,-0.4 v -7.2 c 0,-0.221 -0.179,-0.4 -0.4,-0.4 h -3.2 c -0.221,0 -0.4,0.179 -0.4,0.4 v 7.6 h -3.6 c -0.221,0 -0.4,0.179 -0.4,0.4 v 3.2 c 0,0.221 0.179,0.4 0.4,0.4 h 3.6 v 4 h -7.6 c -0.221,0 -0.4,0.179 -0.4,0.4 v 3.2 c 0,0.221 -0.179,0.4 -0.4,0.4 h -3.2 c -0.221,0 -0.4,-0.179 -0.4,-0.4 v -7.2 c 0,-0.221 -0.179,-0.4 -0.4,-0.4 h -3.2 c -0.221,0 -0.4,0.179 -0.4,0.4 V 128 h -3.6 c -0.221,0 -0.4,0.179 -0.4,0.4 v 3.2 c 0,0.221 -0.1791,0.4 -0.4,0.4 z m -20,0 h -7.2 c -0.2209,0 -0.4,-0.179 -0.4,-0.4 v -11.2 c 0,-0.221 -0.1791,-0.4 -0.4,-0.4 h -7.2 c -0.2209,0 -0.4,0.179 -0.4,0.4 v 7.2 c 0,0.221 -0.1791,0.4 -0.4,0.4 h -3.2 c -0.2209,0 -0.4,-0.179 -0.4,-0.4 v -7.2 c 0,-0.221 -0.1791,-0.4 -0.4,-0.4 h -7.2 c -0.2209,0 -0.4,0.179 -0.4,0.4 v 3.2 c 0,0.221 0.1791,0.4 0.4,0.4 h 3.2 c 0.2209,0 0.4,0.179 0.4,0.4 v 3.2 c 0,0.221 -0.1791,0.4 -0.4,0.4 h -3.2 c -0.2209,0 -0.4,0.179 -0.4,0.4 v 3.2 c 0,0.221 -0.1791,0.4 -0.4,0.4 h -3.2 c -0.2209,0 -0.4,-0.179 -0.4,-0.4 v -15.2 c 0,-0.221 0.1791,-0.4 0.4,-0.4 h 7.2 c 0.2209,0 0.4,-0.179 0.4,-0.4 v -3.2 c 0,-0.221 0.1791,-0.4 0.4,-0.4 h 3.2 c 0.2209,0 0.4,0.179 0.4,0.4 v 3.2 c 0,0.221 0.1791,0.4 0.4,0.4 h 3.2 c 0.2209,0 0.4,-0.179 0.4,-0.4 v -3.2 c 0,-0.221 0.1791,-0.4 0.4,-0.4 h 3.2 c 0.2209,0 0.4,-0.179 0.4,-0.4 V 108 h 3.6 c 0.2209,0 0.4,0.179 0.4,0.4 v 7.2 c 0,0.221 0.1791,0.4 0.4,0.4 h 11.2 c 0.2209,0 0.4,-0.179 0.4,-0.4 v -3.2 c 0,-0.221 0.1791,-0.4 0.4,-0.4 H 88 v 11.6 c 0,0.221 -0.1791,0.4 -0.4,0.4 H 84 v -3.6 c 0,-0.221 -0.1791,-0.4 -0.4,-0.4 h -7.2 c -0.2209,0 -0.4,0.179 -0.4,0.4 v 7.2 c 0,0.221 0.1791,0.4 0.4,0.4 H 80 v 3.6 c 0,0.221 -0.1791,0.4 -0.4,0.4 z m -36,0 H 16.4 c -0.2209,0 -0.4,-0.179 -0.4,-0.4 v -27.2 c 0,-0.221 0.1791,-0.4 0.4,-0.4 h 27.2 c 0.2209,0 0.4,0.179 0.4,0.4 v 27.2 c 0,0.221 -0.1791,0.4 -0.4,0.4 z m 76,-4 H 116 v -3.6 c 0,-0.221 0.179,-0.4 0.4,-0.4 h 3.6 v 3.6 c 0,0.221 -0.179,0.4 -0.4,0.4 z m -36,0 H 80 v -3.6 c 0,-0.221 0.1791,-0.4 0.4,-0.4 H 84 v 3.6 c 0,0.221 -0.1791,0.4 -0.4,0.4 z M 40,127.6 V 108.4 C 40,108.179 39.8209,108 39.6,108 H 20.4 c -0.2209,0 -0.4,0.179 -0.4,0.4 v 19.2 c 0,0.221 0.1791,0.4 0.4,0.4 h 19.2 c 0.2209,0 0.4,-0.179 0.4,-0.4 z M 123.6,124 H 120 v -4 h 3.6 c 0.221,0 0.4,0.179 0.4,0.4 v 3.6 z m -88,0 H 24.4 c -0.2209,0 -0.4,-0.179 -0.4,-0.4 v -11.2 c 0,-0.221 0.1791,-0.4 0.4,-0.4 h 11.2 c 0.2209,0 0.4,0.179 0.4,0.4 v 11.2 c 0,0.221 -0.1791,0.4 -0.4,0.4 z M 112,111.6 v -11.2 c 0,-0.221 -0.179,-0.4 -0.4,-0.4 h -11.2 c -0.221,0 -0.4,0.179 -0.4,0.4 v 11.2 c 0,0.221 0.179,0.4 0.4,0.4 h 11.2 c 0.221,0 0.4,-0.179 0.4,-0.4 z M 79.6,112 h -3.2 c -0.2209,0 -0.4,-0.179 -0.4,-0.4 v -3.2 c 0,-0.221 0.1791,-0.4 0.4,-0.4 h 3.2 c 0.2209,0 0.4,0.179 0.4,0.4 v 3.2 c 0,0.221 -0.1791,0.4 -0.4,0.4 z m 28,-4 h -3.2 c -0.221,0 -0.4,-0.179 -0.4,-0.4 v -3.2 c 0,-0.221 0.179,-0.4 0.4,-0.4 h 3.2 c 0.221,0 0.4,0.179 0.4,0.4 v 3.2 c 0,0.221 -0.179,0.4 -0.4,0.4 z m -52,0 H 52.4 C 52.1791,108 52,107.821 52,107.6 V 104 h 3.6 c 0.2209,0 0.4,0.179 0.4,0.4 v 3.2 c 0,0.221 -0.1791,0.4 -0.4,0.4 z m -4,-4 H 48.4 C 48.1791,104 48,103.821 48,103.6 V 96.4 C 48,96.1791 48.1791,96 48.4,96 H 52 v 8 z m 24,-4 H 72.4 C 72.1791,100 72,99.8209 72,99.6 V 96.4 C 72,96.1791 72.1791,96 72.4,96 H 76 v 3.6 c 0,0.2209 -0.1791,0.4 -0.4,0.4 z m -32,0 H 32.4 C 32.1791,100 32,99.8209 32,99.6 V 96 h 11.6 c 0.2209,0 0.4,0.1791 0.4,0.4 v 3.2 c 0,0.2209 -0.1791,0.4 -0.4,0.4 z m -20,0 H 20.4 C 20.1791,100 20,99.8209 20,99.6 V 96.4 C 20,96.1791 20.1791,96 20.4,96 H 24 v 3.6 c 0,0.2209 -0.1791,0.4 -0.4,0.4 z m 8,-4 H 24 V 80 h 7.6 c 0.2209,0 0.4,0.1791 0.4,0.4 v 7.2 C 32,87.8209 31.8209,88 31.6,88 H 28.4 C 28.1791,88 28,88.1791 28,88.4 v 3.2 c 0,0.2209 0.1791,0.4 0.4,0.4 h 3.2 c 0.2209,0 0.4,0.1791 0.4,0.4 V 96 Z m 72,-4 h -3.2 C 100.179,92 100,91.8209 100,91.6 V 88.4 C 100,88.1791 99.8209,88 99.6,88 H 96.4 C 96.1791,88 96,87.8209 96,87.6 V 80.4 C 96,80.1791 95.8209,80 95.6,80 H 92 V 60 h 3.6 c 0.2209,0 0.4,0.1791 0.4,0.4 v 11.2 c 0,0.2209 0.1791,0.4 0.4,0.4 h 7.2 c 0.221,0 0.4,-0.1791 0.4,-0.4 v -3.2 c 0,-0.2209 0.179,-0.4 0.4,-0.4 h 3.2 c 0.221,0 0.4,0.1791 0.4,0.4 V 76 h -7.6 c -0.221,0 -0.4,0.1791 -0.4,0.4 v 3.2 c 0,0.2209 0.179,0.4 0.4,0.4 h 3.2 c 0.221,0 0.4,0.1791 0.4,0.4 V 92 Z m -56,0 H 40.4 C 40.1791,92 40,91.8209 40,91.6 V 88 h 3.6 C 43.8209,88 44,87.8209 44,87.6 V 84 h 4 v 7.6 c 0,0.2209 -0.1791,0.4 -0.4,0.4 z m -28,0 H 16.4 C 16.1791,92 16,91.8209 16,91.6 V 88.4 C 16,88.1791 16.1791,88 16.4,88 h 3.2 c 0.2209,0 0.4,0.1791 0.4,0.4 v 3.2 c 0,0.2209 -0.1791,0.4 -0.4,0.4 z m 20,-4 H 36.4 C 36.1791,88 36,87.8209 36,87.6 V 84.4 C 36,84.1791 36.1791,84 36.4,84 H 40 v 4 z m 52,-4 H 88 V 80.4 C 88,80.1791 88.1791,80 88.4,80 H 92 v 3.6 c 0,0.2209 -0.1791,0.4 -0.4,0.4 z m -40,0 H 48 v -8 h 8 v 4 H 52.4 C 52.1791,80 52,80.1791 52,80.4 V 84 Z m -8,0 H 40 V 80.4 C 40,80.1791 40.1791,80 40.4,80 h 3.2 c 0.2209,0 0.4,0.1791 0.4,0.4 V 84 Z m -24,0 H 16.4 C 16.1791,84 16,83.8209 16,83.6 V 64.4 C 16,64.1791 16.1791,64 16.4,64 H 20 v 7.6 c 0,0.2209 0.1791,0.4 0.4,0.4 H 24 v 8 H 20.4 C 20.1791,80 20,80.1791 20,80.4 v 3.2 c 0,0.2209 -0.1791,0.4 -0.4,0.4 z m 64,-4 H 72 V 76.4 C 72,76.1791 72.1791,76 72.4,76 h 11.2 c 0.2209,0 0.4,0.1791 0.4,0.4 v 3.2 c 0,0.2209 -0.1791,0.4 -0.4,0.4 z m -16,0 H 64 v -8 h 3.6 c 0.2209,0 0.4,0.1791 0.4,0.4 V 80 Z m -8,-4 H 56 v -8 h 3.6 C 59.8209,68 60,67.8209 60,67.6 V 60.4 C 60,60.1791 60.1791,60 60.4,60 h 7.2 C 67.8209,60 68,59.8209 68,59.6 V 56.4 C 68,56.1791 68.1791,56 68.4,56 h 3.2 c 0.2209,0 0.4,0.1791 0.4,0.4 v 7.2 c 0,0.2209 0.1791,0.4 0.4,0.4 h 7.2 C 79.8209,64 80,63.8209 80,63.6 V 60.4 C 80,60.1791 80.1791,60 80.4,60 h 3.2 c 0.2209,0 0.4,0.1791 0.4,0.4 v 3.2 c 0,0.2209 0.1791,0.4 0.4,0.4 h 3.2 c 0.2209,0 0.4,0.1791 0.4,0.4 v 3.2 C 88,67.8209 87.8209,68 87.6,68 H 84.4 C 84.1791,68 84,68.1791 84,68.4 v 3.2 C 84,71.8209 83.8209,72 83.6,72 H 76.4 C 76.1791,72 76,71.8209 76,71.6 V 68.4 C 76,68.1791 75.8209,68 75.6,68 H 68.4 C 68.1791,68 68,67.8209 68,67.6 V 64.4 C 68,64.1791 67.8209,64 67.6,64 H 64.4 C 64.1791,64 64,64.1791 64,64.4 V 72 H 60.4 C 60.1791,72 60,72.1791 60,72.4 v 3.2 c 0,0.2209 -0.1791,0.4 -0.4,0.4 z m -12,0 H 40.4 C 40.1791,76 40,75.8209 40,75.6 V 72.4 C 40,72.1791 40.1791,72 40.4,72 h 3.2 C 43.8209,72 44,71.8209 44,71.6 V 68.4 C 44,68.1791 43.8209,68 43.6,68 H 40.4 C 40.1791,68 40,67.8209 40,67.6 V 64.4 C 40,64.1791 40.1791,64 40.4,64 h 7.2 C 47.8209,64 48,63.8209 48,63.6 V 60.4 C 48,60.1791 48.1791,60 48.4,60 h 3.2 c 0.2209,0 0.4,0.1791 0.4,0.4 v 3.2 c 0,0.2209 0.1791,0.4 0.4,0.4 h 3.2 c 0.2209,0 0.4,0.1791 0.4,0.4 V 68 H 48.4 C 48.1791,68 48,68.1791 48,68.4 V 76 Z m -12,0 H 28.4 C 28.1791,76 28,75.8209 28,75.6 V 72.4 C 28,72.1791 27.8209,72 27.6,72 H 24 V 68.4 C 24,68.1791 24.1791,68 24.4,68 h 7.2 C 31.8209,68 32,67.8209 32,67.6 V 60 h 4 v 15.6 c 0,0.2209 -0.1791,0.4 -0.4,0.4 z m 96,-12 h -3.2 C 128.179,64 128,63.8209 128,63.6 V 60 h 3.6 c 0.221,0 0.4,0.1791 0.4,0.4 v 3.2 c 0,0.2209 -0.179,0.4 -0.4,0.4 z m -20,0 H 100.4 C 100.179,64 100,63.8209 100,63.6 V 56 h 4 v 3.6 c 0,0.2209 0.179,0.4 0.4,0.4 h 7.6 v 3.6 c 0,0.2209 -0.179,0.4 -0.4,0.4 z m -88,0 H 20 V 56.4 C 20,56.1791 19.8209,56 19.6,56 H 16.4 C 16.1791,56 16,55.8209 16,55.6 V 48.4 C 16,48.1791 16.1791,48 16.4,48 h 15.2 c 0.2209,0 0.4,0.1791 0.4,0.4 v 3.2 c 0,0.2209 0.1791,0.4 0.4,0.4 h 3.2 c 0.2209,0 0.4,0.1791 0.4,0.4 V 56 H 32.4 C 32.1791,56 32,56.1791 32,56.4 V 60 H 24.4 C 24.1791,60 24,60.1791 24,60.4 v 3.2 c 0,0.2209 -0.1791,0.4 -0.4,0.4 z m 104,-4 h -7.2 c -0.221,0 -0.4,-0.1791 -0.4,-0.4 v -3.2 c 0,-0.2209 0.179,-0.4 0.4,-0.4 h 7.6 v 4 z m -12,0 H 112 V 56.4 C 112,56.1791 111.821,56 111.6,56 H 104 v -4 h 7.6 c 0.221,0 0.4,-0.1791 0.4,-0.4 v -3.2 c 0,-0.2209 0.179,-0.4 0.4,-0.4 h 11.2 c 0.221,0 0.4,0.1791 0.4,0.4 v 3.2 c 0,0.2209 -0.179,0.4 -0.4,0.4 h -7.2 c -0.221,0 -0.4,0.1791 -0.4,0.4 v 7.2 c 0,0.2209 -0.179,0.4 -0.4,0.4 z m -24,0 H 88.4 C 88.1791,60 88,59.8209 88,59.6 V 56.4 C 88,56.1791 87.8209,56 87.6,56 H 80.4 C 80.1791,56 80,55.8209 80,55.6 V 52.4 C 80,52.1791 80.1791,52 80.4,52 h 3.2 C 83.8209,52 84,51.8209 84,51.6 V 48.4 C 84,48.1791 83.8209,48 83.6,48 H 80.4 C 80.1791,48 80,47.8209 80,47.6 V 36.4 C 80,36.1791 79.8209,36 79.6,36 H 76.4 C 76.1791,36 76,36.1791 76,36.4 v 7.2 C 76,43.8209 75.8209,44 75.6,44 H 72.4 C 72.1791,44 72,43.8209 72,43.6 V 40.4 C 72,40.1791 71.8209,40 71.6,40 H 68.4 C 68.1791,40 68,40.1791 68,40.4 v 3.2 C 68,43.8209 67.8209,44 67.6,44 H 64 v -8 h 3.6 C 67.8209,36 68,35.8209 68,35.6 V 28.4 C 68,28.1791 67.8209,28 67.6,28 H 64.4 C 64.1791,28 64,28.1791 64,28.4 V 36 H 56.4 C 56.1791,36 56,36.1791 56,36.4 V 40 H 52 V 36.4 C 52,36.1791 51.8209,36 51.6,36 H 48.4 C 48.1791,36 48,35.8209 48,35.6 V 24.4 C 48,24.1791 48.1791,24 48.4,24 h 3.2 c 0.2209,0 0.4,0.1791 0.4,0.4 v 3.2 c 0,0.2209 0.1791,0.4 0.4,0.4 h 3.2 c 0.2209,0 0.4,0.1791 0.4,0.4 v 3.2 c 0,0.2209 0.1791,0.4 0.4,0.4 h 3.2 C 59.8209,32 60,31.8209 60,31.6 V 24.4 C 60,24.1791 60.1791,24 60.4,24 h 7.2 C 67.8209,24 68,23.8209 68,23.6 V 20.4 C 68,20.1791 68.1791,20 68.4,20 h 3.2 C 71.8209,20 72,19.8209 72,19.6 V 16.4 C 72,16.1791 72.1791,16 72.4,16 h 3.2 c 0.2209,0 0.4,0.1791 0.4,0.4 v 7.2 c 0,0.2209 0.1791,0.4 0.4,0.4 H 80 v 3.6 C 80,27.8209 79.8209,28 79.6,28 H 72.4 C 72.1791,28 72,28.1791 72,28.4 v 3.2 c 0,0.2209 0.1791,0.4 0.4,0.4 H 83.6 C 83.8209,32 84,31.8209 84,31.6 V 28.4 C 84,28.1791 84.1791,28 84.4,28 H 88 V 40 H 84.4 C 84.1791,40 84,40.1791 84,40.4 v 3.2 c 0,0.2209 0.1791,0.4 0.4,0.4 H 88 v 7.6 c 0,0.2209 0.1791,0.4 0.4,0.4 h 3.2 C 91.8209,52 92,51.8209 92,51.6 V 48.4 C 92,48.1791 92.1791,48 92.4,48 h 11.2 c 0.221,0 0.4,0.1791 0.4,0.4 V 52 h -3.6 c -0.221,0 -0.4,0.1791 -0.4,0.4 V 56 H 92.4 C 92.1791,56 92,56.1791 92,56.4 V 60 Z m -48,0 H 36 v -4 h 8 v 3.6 c 0,0.2209 -0.1791,0.4 -0.4,0.4 z m 88,-4 H 128 v -7.6 c 0,-0.2209 0.179,-0.4 0.4,-0.4 h 3.2 c 0.221,0 0.4,0.1791 0.4,0.4 v 7.2 c 0,0.2209 -0.179,0.4 -0.4,0.4 z m -76,0 H 44 v -4 h 3.6 C 47.8209,52 48,51.8209 48,51.6 V 48.4 C 48,48.1791 48.1791,48 48.4,48 H 52 v 3.6 c 0,0.2209 0.1791,0.4 0.4,0.4 h 3.2 c 0.2209,0 0.4,0.1791 0.4,0.4 v 3.2 C 56,55.8209 55.8209,56 55.6,56 Z M 28,55.6 V 52.4 C 28,52.1791 27.8209,52 27.6,52 H 24.4 C 24.1791,52 24,52.1791 24,52.4 v 3.2 c 0,0.2209 0.1791,0.4 0.4,0.4 h 3.2 C 27.8209,56 28,55.8209 28,55.6 Z M 75.6,52 H 72.4 C 72.1791,52 72,51.8209 72,51.6 V 48.4 C 72,48.1791 72.1791,48 72.4,48 h 3.2 c 0.2209,0 0.4,0.1791 0.4,0.4 v 3.2 c 0,0.2209 -0.1791,0.4 -0.4,0.4 z m -32,0 H 40.4 C 40.1791,52 40,51.8209 40,51.6 V 48.4 C 40,48.1791 40.1791,48 40.4,48 h 3.2 c 0.2209,0 0.4,0.1791 0.4,0.4 V 52 Z m 20,-4 H 60.4 C 60.1791,48 60,47.8209 60,47.6 V 44 h 4 v 3.6 c 0,0.2209 -0.1791,0.4 -0.4,0.4 z m -8,0 H 52 v -4 h 4 v 3.6 c 0,0.2209 -0.1791,0.4 -0.4,0.4 z m 76,-4 H 104.4 C 104.179,44 104,43.8209 104,43.6 V 16.4 c 0,-0.2209 0.179,-0.4 0.4,-0.4 h 27.2 c 0.221,0 0.4,0.1791 0.4,0.4 v 27.2 c 0,0.2209 -0.179,0.4 -0.4,0.4 z m -32,0 H 96.4 C 96.1791,44 96,43.8209 96,43.6 V 40 h 3.6 c 0.2209,0 0.4,0.1791 0.4,0.4 v 3.2 c 0,0.2209 -0.1791,0.4 -0.4,0.4 z m -8,0 H 88 v -4 h 4 v 3.6 c 0,0.2209 -0.1791,0.4 -0.4,0.4 z m -32,0 H 56 v -4 h 3.6 c 0.2209,0 0.4,0.1791 0.4,0.4 V 44 Z m -8,0 H 48.4 C 48.1791,44 48,43.8209 48,43.6 V 40.4 C 48,40.1791 48.1791,40 48.4,40 H 52 v 4 z m -8,0 H 16.4 C 16.1791,44 16,43.8209 16,43.6 V 16.4 C 16,16.1791 16.1791,16 16.4,16 h 27.2 c 0.2209,0 0.4,0.1791 0.4,0.4 V 43.6 C 44,43.8209 43.8209,44 43.6,44 Z M 128,39.6 V 20.4 c 0,-0.2209 -0.179,-0.4 -0.4,-0.4 h -19.2 c -0.221,0 -0.4,0.1791 -0.4,0.4 v 19.2 c 0,0.2209 0.179,0.4 0.4,0.4 h 19.2 c 0.221,0 0.4,-0.1791 0.4,-0.4 z M 95.6,40 H 92 V 28.4 C 92,28.1791 91.8209,28 91.6,28 H 88 V 24.4 C 88,24.1791 87.8209,24 87.6,24 H 80 V 16.4 C 80,16.1791 80.1791,16 80.4,16 h 3.2 c 0.2209,0 0.4,0.1791 0.4,0.4 v 3.2 c 0,0.2209 0.1791,0.4 0.4,0.4 H 92 v 3.6 c 0,0.2209 0.1791,0.4 0.4,0.4 H 96 V 40 Z M 40,39.6 V 20.4 C 40,20.1791 39.8209,20 39.6,20 H 20.4 C 20.1791,20 20,20.1791 20,20.4 v 19.2 c 0,0.2209 0.1791,0.4 0.4,0.4 H 39.6 C 39.8209,40 40,39.8209 40,39.6 Z M 123.6,36 H 112.4 C 112.179,36 112,35.8209 112,35.6 V 24.4 c 0,-0.2209 0.179,-0.4 0.4,-0.4 h 11.2 c 0.221,0 0.4,0.1791 0.4,0.4 v 11.2 c 0,0.2209 -0.179,0.4 -0.4,0.4 z m -88,0 H 24.4 C 24.1791,36 24,35.8209 24,35.6 V 24.4 C 24,24.1791 24.1791,24 24.4,24 h 11.2 c 0.2209,0 0.4,0.1791 0.4,0.4 v 11.2 c 0,0.2209 -0.1791,0.4 -0.4,0.4 z m 64,-12 H 96 V 20.4 C 96,20.1791 95.8209,20 95.6,20 H 92 V 16.4 C 92,16.1791 92.1791,16 92.4,16 h 7.2 c 0.2209,0 0.4,0.1791 0.4,0.4 v 7.2 c 0,0.2209 -0.1791,0.4 -0.4,0.4 z m -44,-4 H 48.4 C 48.1791,20 48,19.8209 48,19.6 V 16.4 C 48,16.1791 48.1791,16 48.4,16 h 7.2 c 0.2209,0 0.4,0.1791 0.4,0.4 v 3.2 c 0,0.2209 -0.1791,0.4 -0.4,0.4 z"
           id="path1" />
      </g>
    </g>
  </g>
</svg>
