<?xml version="1.0" encoding="UTF-8" standalone="no"?>
<!-- Created with Inkscape (http://www.inkscape.org/) -->

<svg
   width="39.158283mm"
   height="39.158283mm"
   viewBox="0 0 39.158283 39.158283"
   version="1.1"
   id="svg5"
   sodipodi:docname="qrcode.svg"
   inkscape:version="1.1.2 (1:1.1+202202050852+0a00cf5339)"
   xmlns:inkscape="http://www.inkscape.org/namespaces/inkscape"
   xmlns:sodipodi="http://sodipodi.sourceforge.net/DTD/sodipodi-0.dtd"
   xmlns="http://www.w3.org/2000/svg"
   xmlns:svg="http://www.w3.org/2000/svg">
  <sodipodi:namedview
     id="namedview7"
     pagecolor="#ffffff"
     bordercolor="#666666"
     borderopacity="1.0"
     inkscape:pageshadow="2"
     inkscape:pageopacity="0.0"
     inkscape:pagecheckerboard="0"
     inkscape:document-units="mm"
     showgrid="false"
     inkscape:zoom="0.70199214"
     inkscape:cx="-212.25309"
     inkscape:cy="-0.71225868"
     inkscape:window-width="1920"
     inkscape:window-height="1053"
     inkscape:window-x="0"
     inkscape:window-y="0"
     inkscape:window-maximized="1"
     inkscape:current-layer="layer1"
     fit-margin-top="0"
     fit-margin-left="0"
     fit-margin-right="0"
     fit-margin-bottom="0" />
  <defs
     id="defs2" />
  <g
     inkscape:label="Capa 1"
     inkscape:groupmode="layer"
     id="layer1"
     transform="translate(-105.156,-148.312)">
    <g
       inkscape:label="QR Code: https://javguerra.github.io/ramp-up-fswd/index.html"
       transform="matrix(0.264583,0,0,0.264583,105.156,148.312)"
       id="g836">
      <rect
         x="0"
         y="0"
         width="148"
         height="148"
         style="fill:#ffffff;stroke:none"
         id="rect830" />
      <g
         style="fill:#000000;stroke:none"
         id="g834">
        <path
           d="M 111.6,132 H 92.4 C 92.179086,132 92,131.82091 92,131.6 V 128 h 11.6 c 0.22091,0 0.4,-0.17909 0.4,-0.4 v -3.2 c 0,-0.22091 0.17909,-0.4 0.4,-0.4 h 3.6 v 3.6 c 0,0.22091 0.17909,0.4 0.4,0.4 h 3.2 c 0.22091,0 0.4,0.17909 0.4,0.4 v 3.2 c 0,0.22091 -0.17909,0.4 -0.4,0.4 z m -32,0 H 76.4 C 76.179086,132 76,131.82091 76,131.6 V 128 h 4 v 3.6 c 0,0.22091 -0.179086,0.4 -0.4,0.4 z m -8,0 H 56.4 c -0.220914,0 -0.4,-0.17909 -0.4,-0.4 v -3.2 c 0,-0.22091 -0.179086,-0.4 -0.4,-0.4 h -3.2 c -0.220914,0 -0.4,0.17909 -0.4,0.4 v 3.2 c 0,0.22091 -0.179086,0.4 -0.4,0.4 h -3.2 c -0.220914,0 -0.4,-0.17909 -0.4,-0.4 v -7.2 c 0,-0.22091 0.179086,-0.4 0.4,-0.4 h 3.2 c 0.220914,0 0.4,-0.17909 0.4,-0.4 v -3.2 c 0,-0.22091 -0.179086,-0.4 -0.4,-0.4 h -3.2 c -0.220914,0 -0.4,-0.17909 -0.4,-0.4 v -7.2 c 0,-0.22091 0.179086,-0.4 0.4,-0.4 h 3.2 c 0.220914,0 0.4,-0.17909 0.4,-0.4 v -3.2 c 0,-0.22091 0.179086,-0.4 0.4,-0.4 h 3.2 c 0.220914,0 0.4,0.17909 0.4,0.4 v 3.2 c 0,0.22091 0.179086,0.4 0.4,0.4 h 3.2 c 0.220914,0 0.4,-0.17909 0.4,-0.4 v -7.2 c 0,-0.22091 -0.179086,-0.4 -0.4,-0.4 h -3.2 c -0.220914,0 -0.4,-0.17909 -0.4,-0.4 v -3.2 c 0,-0.22091 -0.179086,-0.4 -0.4,-0.4 h -3.2 c -0.220914,0 -0.4,0.17909 -0.4,0.4 v 3.2 c 0,0.22091 -0.179086,0.4 -0.4,0.4 h -3.2 c -0.220914,0 -0.4,-0.17909 -0.4,-0.4 v -3.2 C 48,100.17909 47.820914,100 47.6,100 H 36.4 C 36.179086,100 36,99.820914 36,99.6 V 96.4 C 36,96.179086 35.820914,96 35.6,96 H 32 v -4 h 3.6 C 35.820914,92 36,91.820914 36,91.6 V 88.4 C 36,88.179086 35.820914,88 35.6,88 H 32.4 C 32.179086,88 32,88.179086 32,88.4 V 92 H 28 V 84.4 C 28,84.179086 28.179086,84 28.4,84 h 3.2 C 31.820914,84 32,83.820914 32,83.6 V 80.4 C 32,80.179086 31.820914,80 31.6,80 H 28.4 C 28.179086,80 28,79.820914 28,79.6 V 76.4 C 28,76.179086 27.820914,76 27.6,76 H 24.4 C 24.179086,76 24,76.179086 24,76.4 v 15.2 c 0,0.220914 0.179086,0.4 0.4,0.4 H 28 v 3.6 c 0,0.220914 0.179086,0.4 0.4,0.4 H 32 v 3.6 c 0,0.220914 -0.179086,0.4 -0.4,0.4 H 16.4 C 16.179086,100 16,99.820914 16,99.6 V 84.4 C 16,84.179086 16.179086,84 16.4,84 h 3.2 C 19.820914,84 20,83.820914 20,83.6 V 72.4 C 20,72.179086 19.820914,72 19.6,72 H 16.4 C 16.179086,72 16,71.820914 16,71.6 V 48.4 C 16,48.179086 16.179086,48 16.4,48 h 7.2 c 0.220914,0 0.4,0.179086 0.4,0.4 V 56 H 20.4 C 20.179086,56 20,56.179086 20,56.4 v 7.2 c 0,0.220914 0.179086,0.4 0.4,0.4 H 24 v 7.6 c 0,0.220914 0.179086,0.4 0.4,0.4 h 3.2 C 27.820914,72 28,71.820914 28,71.6 V 64 h 8 v 3.6 c 0,0.220914 0.179086,0.4 0.4,0.4 H 40 v 4 H 36.4 C 36.179086,72 36,72.179086 36,72.4 v 7.2 c 0,0.220914 0.179086,0.4 0.4,0.4 h 7.2 C 43.820914,80 44,79.820914 44,79.6 V 76.4 C 44,76.179086 43.820914,76 43.6,76 H 40.4 C 40.179086,76 40,75.820914 40,75.6 V 72 H 55.6 C 55.820914,72 56,71.820914 56,71.6 V 68.4 C 56,68.179086 55.820914,68 55.6,68 H 52.4 C 52.179086,68 52,67.820914 52,67.6 V 64.4 C 52,64.179086 52.179086,64 52.4,64 H 60 v 3.6 c 0,0.220914 0.179086,0.4 0.4,0.4 H 64 v 4 H 60.4 C 60.179086,72 60,72.179086 60,72.4 v 3.2 c 0,0.220914 0.179086,0.4 0.4,0.4 H 64 v 4 H 56.4 C 56.179086,80 56,79.820914 56,79.6 V 76.4 C 56,76.179086 55.820914,76 55.6,76 H 52.4 C 52.179086,76 52,76.179086 52,76.4 v 3.2 C 52,79.820914 51.820914,80 51.6,80 H 48.4 C 48.179086,80 48,80.179086 48,80.4 v 3.2 c 0,0.220914 0.179086,0.4 0.4,0.4 h 3.2 c 0.220914,0 0.4,0.179086 0.4,0.4 v 3.2 c 0,0.220914 0.179086,0.4 0.4,0.4 h 3.2 C 55.820914,88 56,87.820914 56,87.6 V 84.4 C 56,84.179086 56.179086,84 56.4,84 h 3.2 c 0.220914,0 0.4,0.179086 0.4,0.4 v 3.2 c 0,0.220914 0.179086,0.4 0.4,0.4 h 3.2 C 63.820914,88 64,87.820914 64,87.6 V 80 h 7.6 C 71.820914,80 72,79.820914 72,79.6 V 76.4 C 72,76.179086 71.820914,76 71.6,76 H 64 v -4 h 3.6 C 67.820914,72 68,71.820914 68,71.6 V 68 h 7.6 C 75.820914,68 76,67.820914 76,67.6 V 64 h 3.6 c 0.220914,0 0.4,0.179086 0.4,0.4 v 3.2 c 0,0.220914 0.179086,0.4 0.4,0.4 h 11.2 c 0.220914,0 0.4,0.179086 0.4,0.4 v 3.2 c 0,0.220914 0.179086,0.4 0.4,0.4 h 7.2 c 0.220914,0 0.4,0.179086 0.4,0.4 V 76 H 96.4 C 96.179086,76 96,76.179086 96,76.4 V 80 H 92.4 C 92.179086,80 92,79.820914 92,79.6 V 76.4 C 92,76.179086 91.820914,76 91.6,76 H 88.4 C 88.179086,76 88,75.820914 88,75.6 V 72.4 C 88,72.179086 87.820914,72 87.6,72 H 80.4 C 80.179086,72 80,72.179086 80,72.4 v 3.2 C 80,75.820914 79.820914,76 79.6,76 H 76.4 C 76.179086,76 76,76.179086 76,76.4 V 84 H 72.4 C 72.179086,84 72,84.179086 72,84.4 v 3.2 C 72,87.820914 71.820914,88 71.6,88 H 68.4 C 68.179086,88 68,88.179086 68,88.4 v 3.2 c 0,0.220914 0.179086,0.4 0.4,0.4 h 3.2 c 0.220914,0 0.4,0.179086 0.4,0.4 V 96 H 64 V 92.4 C 64,92.179086 63.820914,92 63.6,92 H 60.4 C 60.179086,92 60,92.179086 60,92.4 v 3.2 c 0,0.220914 0.179086,0.4 0.4,0.4 H 64 v 15.6 c 0,0.22091 0.179086,0.4 0.4,0.4 h 3.2 c 0.220914,0 0.4,0.17909 0.4,0.4 v 3.2 c 0,0.22091 -0.179086,0.4 -0.4,0.4 h -3.2 c -0.220914,0 -0.4,0.17909 -0.4,0.4 v 3.6 h -3.6 c -0.220914,0 -0.4,-0.17909 -0.4,-0.4 v -3.2 c 0,-0.22091 -0.179086,-0.4 -0.4,-0.4 h -3.2 c -0.220914,0 -0.4,0.17909 -0.4,0.4 v 7.2 c 0,0.22091 0.179086,0.4 0.4,0.4 h 3.2 c 0.220914,0 0.4,0.17909 0.4,0.4 v 3.2 c 0,0.22091 0.179086,0.4 0.4,0.4 H 72 v 3.6 c 0,0.22091 -0.179086,0.4 -0.4,0.4 z m -28,0 H 16.4 c -0.220914,0 -0.4,-0.17909 -0.4,-0.4 v -27.2 c 0,-0.22091 0.179086,-0.4 0.4,-0.4 h 27.2 c 0.220914,0 0.4,0.17909 0.4,0.4 v 27.2 c 0,0.22091 -0.179086,0.4 -0.4,0.4 z m 88,-4 h -3.2 c -0.22091,0 -0.4,-0.17909 -0.4,-0.4 v -3.2 c 0,-0.22091 -0.17909,-0.4 -0.4,-0.4 h -3.2 c -0.22091,0 -0.4,0.17909 -0.4,0.4 v 3.2 c 0,0.22091 -0.17909,0.4 -0.4,0.4 h -7.2 c -0.22091,0 -0.4,-0.17909 -0.4,-0.4 V 124 h 3.6 c 0.22091,0 0.4,-0.17909 0.4,-0.4 v -3.2 c 0,-0.22091 0.17909,-0.4 0.4,-0.4 h 3.2 c 0.22091,0 0.4,-0.17909 0.4,-0.4 v -11.2 c 0,-0.22091 0.17909,-0.4 0.4,-0.4 h 3.2 c 0.22091,0 0.4,0.17909 0.4,0.4 v 3.2 c 0,0.22091 0.17909,0.4 0.4,0.4 h 3.2 c 0.22091,0 0.4,0.17909 0.4,0.4 v 15.2 c 0,0.22091 -0.17909,0.4 -0.4,0.4 z m -40,0 h -3.2 c -0.220914,0 -0.4,-0.17909 -0.4,-0.4 v -3.2 C 88,124.17909 87.820914,124 87.6,124 H 84 v -4 h 12 v 3.6 c 0,0.22091 -0.179086,0.4 -0.4,0.4 h -3.2 c -0.220914,0 -0.4,0.17909 -0.4,0.4 v 3.6 z m -8,0 H 80 v -4 h 4 v 3.6 c 0,0.22091 -0.179086,0.4 -0.4,0.4 z m -8,0 H 72 v -11.6 c 0,-0.22091 0.179086,-0.4 0.4,-0.4 h 7.2 c 0.220914,0 0.4,-0.17909 0.4,-0.4 v -3.2 c 0,-0.22091 0.179086,-0.4 0.4,-0.4 H 84 v 8 h -3.6 c -0.220914,0 -0.4,0.17909 -0.4,0.4 v 3.6 h -3.6 c -0.220914,0 -0.4,0.17909 -0.4,0.4 V 128 Z M 40,127.6 V 108.4 C 40,108.17909 39.820914,108 39.6,108 H 20.4 c -0.220914,0 -0.4,0.17909 -0.4,0.4 v 19.2 c 0,0.22091 0.179086,0.4 0.4,0.4 h 19.2 c 0.220914,0 0.4,-0.17909 0.4,-0.4 z M 115.6,124 H 108 v -3.6 c 0,-0.22091 0.17909,-0.4 0.4,-0.4 h 7.2 c 0.22091,0 0.4,0.17909 0.4,0.4 v 3.6 z m -48,0 H 64.4 C 64.179086,124 64,123.82091 64,123.6 V 120 h 3.6 c 0.220914,0 0.4,0.17909 0.4,0.4 v 3.2 c 0,0.22091 -0.179086,0.4 -0.4,0.4 z m -32,0 H 24.4 c -0.220914,0 -0.4,-0.17909 -0.4,-0.4 v -11.2 c 0,-0.22091 0.179086,-0.4 0.4,-0.4 h 11.2 c 0.220914,0 0.4,0.17909 0.4,0.4 v 11.2 c 0,0.22091 -0.179086,0.4 -0.4,0.4 z m 68,-4 H 96 v -3.6 c 0,-0.22091 -0.179086,-0.4 -0.4,-0.4 h -3.2 c -0.220914,0 -0.4,-0.17909 -0.4,-0.4 v -3.2 c 0,-0.22091 0.179086,-0.4 0.4,-0.4 h 3.2 c 0.220914,0 0.4,-0.17909 0.4,-0.4 v -3.2 C 96,108.17909 95.820914,108 95.6,108 H 92.4 C 92.179086,108 92,107.82091 92,107.6 V 104 h 3.6 c 0.220914,0 0.4,-0.17909 0.4,-0.4 V 96.4 C 96,96.179086 96.179086,96 96.4,96 h 7.2 c 0.22091,0 0.4,-0.179086 0.4,-0.4 V 92.4 C 104,92.179086 103.82091,92 103.6,92 H 92.4 C 92.179086,92 92,91.820914 92,91.6 V 88.4 C 92,88.179086 91.820914,88 91.6,88 H 88.4 C 88.179086,88 88,87.820914 88,87.6 V 84.4 C 88,84.179086 88.179086,84 88.4,84 h 7.2 C 95.820914,84 96,83.820914 96,83.6 V 80 h 4 v 3.6 c 0,0.220914 0.17909,0.4 0.4,0.4 h 3.2 c 0.22091,0 0.4,0.179086 0.4,0.4 v 3.2 c 0,0.220914 0.17909,0.4 0.4,0.4 h 3.2 c 0.22091,0 0.4,0.179086 0.4,0.4 v 7.2 c 0,0.220914 0.17909,0.4 0.4,0.4 h 3.2 c 0.22091,0 0.4,-0.179086 0.4,-0.4 V 84.4 c 0,-0.220914 0.17909,-0.4 0.4,-0.4 h 3.6 v 3.6 c 0,0.220914 0.17909,0.4 0.4,0.4 h 3.6 v 3.6 c 0,0.220914 0.17909,0.4 0.4,0.4 h 3.2 c 0.22091,0 0.4,0.179086 0.4,0.4 v 3.2 c 0,0.220914 0.17909,0.4 0.4,0.4 h 3.2 c 0.22091,0 0.4,0.179086 0.4,0.4 v 3.2 c 0,0.220914 -0.17909,0.4 -0.4,0.4 h -7.2 c -0.22091,0 -0.4,0.17909 -0.4,0.4 v 7.2 c 0,0.22091 -0.17909,0.4 -0.4,0.4 h -3.2 c -0.22091,0 -0.4,0.17909 -0.4,0.4 v 3.2 c 0,0.22091 0.17909,0.4 0.4,0.4 h 3.2 c 0.22091,0 0.4,0.17909 0.4,0.4 v 3.2 c 0,0.22091 -0.17909,0.4 -0.4,0.4 h -15.2 c -0.22091,0 -0.4,0.17909 -0.4,0.4 v 3.2 c 0,0.22091 -0.17909,0.4 -0.4,0.4 z m 8.4,-8.4 v -11.2 c 0,-0.22091 -0.17909,-0.4 -0.4,-0.4 h -11.2 c -0.22091,0 -0.4,0.17909 -0.4,0.4 v 11.2 c 0,0.22091 0.17909,0.4 0.4,0.4 h 11.2 c 0.22091,0 0.4,-0.17909 0.4,-0.4 z M 87.6,112 H 84 v -4 h 3.6 c 0.220914,0 0.4,0.17909 0.4,0.4 v 3.2 c 0,0.22091 -0.179086,0.4 -0.4,0.4 z m -12,0 h -3.2 c -0.220914,0 -0.4,-0.17909 -0.4,-0.4 v -7.2 c 0,-0.22091 -0.179086,-0.4 -0.4,-0.4 h -3.2 c -0.220914,0 -0.4,-0.17909 -0.4,-0.4 v -3.2 c 0,-0.22091 0.179086,-0.4 0.4,-0.4 h 3.2 c 0.220914,0 0.4,-0.179086 0.4,-0.4 V 96 h 7.6 c 0.220914,0 0.4,0.179086 0.4,0.4 v 7.2 c 0,0.22091 0.179086,0.4 0.4,0.4 H 84 v 4 h -7.6 c -0.220914,0 -0.4,0.17909 -0.4,0.4 v 3.2 c 0,0.22091 -0.179086,0.4 -0.4,0.4 z m 32,-4 h -3.2 c -0.22091,0 -0.4,-0.17909 -0.4,-0.4 v -3.2 c 0,-0.22091 0.17909,-0.4 0.4,-0.4 h 3.2 c 0.22091,0 0.4,0.17909 0.4,0.4 v 3.2 c 0,0.22091 -0.17909,0.4 -0.4,0.4 z m -16,-4 H 84 V 96.4 C 84,96.179086 84.179086,96 84.4,96 h 7.2 c 0.220914,0 0.4,0.179086 0.4,0.4 V 104 Z M 56,95.6 V 92.4 C 56,92.179086 55.820914,92 55.6,92 H 48.4 C 48.179086,92 48,92.179086 48,92.4 v 3.2 c 0,0.220914 0.179086,0.4 0.4,0.4 h 7.2 c 0.220914,0 0.4,-0.179086 0.4,-0.4 z m -12,0 V 92.4 C 44,92.179086 43.820914,92 43.6,92 H 40.4 C 40.179086,92 40,92.179086 40,92.4 v 3.2 c 0,0.220914 0.179086,0.4 0.4,0.4 h 3.2 C 43.820914,96 44,95.820914 44,95.6 Z M 131.6,92 h -3.2 C 128.17909,92 128,91.820914 128,91.6 V 88 h 3.6 c 0.22091,0 0.4,0.179086 0.4,0.4 v 3.2 c 0,0.220914 -0.17909,0.4 -0.4,0.4 z m -48,0 H 76.4 C 76.179086,92 76,91.820914 76,91.6 V 84 h 7.6 c 0.220914,0 0.4,0.179086 0.4,0.4 v 7.2 c 0,0.220914 -0.179086,0.4 -0.4,0.4 z m 44,-4 H 120 v -4 h 7.6 c 0.22091,0 0.4,0.179086 0.4,0.4 V 88 Z M 44,87.6 V 84.4 C 44,84.179086 43.820914,84 43.6,84 H 40.4 C 40.179086,84 40,84.179086 40,84.4 v 3.2 c 0,0.220914 0.179086,0.4 0.4,0.4 h 3.2 C 43.820914,88 44,87.820914 44,87.6 Z M 119.6,84 H 116 v -4 h 4 v 4 z m 12,-4 h -3.2 c -0.22091,0 -0.4,-0.179086 -0.4,-0.4 v -7.2 c 0,-0.220914 -0.17909,-0.4 -0.4,-0.4 h -3.2 c -0.22091,0 -0.4,0.179086 -0.4,0.4 v 7.2 c 0,0.220914 -0.17909,0.4 -0.4,0.4 H 120 v -7.6 c 0,-0.220914 -0.17909,-0.4 -0.4,-0.4 h -11.2 c -0.22091,0 -0.4,0.179086 -0.4,0.4 v 3.2 c 0,0.220914 0.17909,0.4 0.4,0.4 h 7.2 c 0.22091,0 0.4,0.179086 0.4,0.4 V 80 h -16 v -4 h 3.6 c 0.22091,0 0.4,-0.179086 0.4,-0.4 V 64.4 C 104,64.179086 103.82091,64 103.6,64 H 100 v -3.6 c 0,-0.220914 0.17909,-0.4 0.4,-0.4 h 7.2 c 0.22091,0 0.4,0.179086 0.4,0.4 v 3.2 c 0,0.220914 0.17909,0.4 0.4,0.4 h 3.6 v 3.6 c 0,0.220914 0.17909,0.4 0.4,0.4 h 15.2 c 0.22091,0 0.4,-0.179086 0.4,-0.4 v -7.2 c 0,-0.220914 0.17909,-0.4 0.4,-0.4 h 3.2 c 0.22091,0 0.4,0.179086 0.4,0.4 v 19.2 c 0,0.220914 -0.17909,0.4 -0.4,0.4 z M 99.6,68 H 96.4 C 96.179086,68 96,67.820914 96,67.6 V 64.4 C 96,64.179086 96.179086,64 96.4,64 h 3.6 v 3.6 c 0,0.220914 -0.179086,0.4 -0.4,0.4 z m -32,0 H 64 V 64.4 C 64,64.179086 63.820914,64 63.6,64 H 60 V 56.4 C 60,56.179086 59.820914,56 59.6,56 H 56 v -4 h 7.6 c 0.220914,0 0.4,0.179086 0.4,0.4 v 3.2 c 0,0.220914 0.179086,0.4 0.4,0.4 h 7.2 c 0.220914,0 0.4,0.179086 0.4,0.4 V 60 H 68.4 C 68.179086,60 68,60.179086 68,60.4 V 68 Z m -24,0 H 40 v -4 h 3.6 c 0.220914,0 0.4,0.179086 0.4,0.4 v 3.2 c 0,0.220914 -0.179086,0.4 -0.4,0.4 z m 76,-4 H 112 v -3.6 c 0,-0.220914 0.17909,-0.4 0.4,-0.4 h 7.6 v 3.6 c 0,0.220914 -0.17909,0.4 -0.4,0.4 z m -28,0 H 84.4 C 84.179086,64 84,63.820914 84,63.6 V 60 h 7.6 c 0.220914,0 0.4,0.179086 0.4,0.4 v 3.2 c 0,0.220914 -0.179086,0.4 -0.4,0.4 z m -16,0 H 72.4 C 72.179086,64 72,63.820914 72,63.6 V 60 h 4 v 4 z m -36,0 H 36 V 60.4 C 36,60.179086 36.179086,60 36.4,60 H 40 v 4 z m -12,0 H 24 v -8 h 7.6 c 0.220914,0 0.4,0.179086 0.4,0.4 v 3.2 C 32,59.820914 31.820914,60 31.6,60 H 28.4 C 28.179086,60 28,60.179086 28,60.4 V 64 Z m 96,-4 H 120 v -7.6 c 0,-0.220914 0.17909,-0.4 0.4,-0.4 h 7.6 v 3.6 c 0,0.220914 -0.17909,0.4 -0.4,0.4 h -3.2 c -0.22091,0 -0.4,0.179086 -0.4,0.4 v 3.2 c 0,0.220914 -0.17909,0.4 -0.4,0.4 z m -40,0 H 76 V 52.4 C 76,52.179086 75.820914,52 75.6,52 H 72.4 C 72.179086,52 72,51.820914 72,51.6 V 48 h 7.6 c 0.220914,0 0.4,0.179086 0.4,0.4 v 7.2 c 0,0.220914 0.179086,0.4 0.4,0.4 H 84 v 4 z m -28,0 H 48.4 C 48.179086,60 48,59.820914 48,59.6 V 56.4 C 48,56.179086 47.820914,56 47.6,56 H 44 v -4 h 8 v 3.6 c 0,0.220914 0.179086,0.4 0.4,0.4 H 56 v 3.6 c 0,0.220914 -0.179086,0.4 -0.4,0.4 z m -12,0 H 40 V 56.4 C 40,56.179086 40.179086,56 40.4,56 H 44 v 3.6 c 0,0.220914 -0.179086,0.4 -0.4,0.4 z m 72,-4 h -7.2 C 108.17909,56 108,55.820914 108,55.6 V 52 h 7.6 c 0.22091,0 0.4,0.179086 0.4,0.4 v 3.2 c 0,0.220914 -0.17909,0.4 -0.4,0.4 z m -12,0 h -3.2 C 100.17909,56 100,55.820914 100,55.6 V 52 h 4 v 3.6 c 0,0.220914 -0.17909,0.4 -0.4,0.4 z m -8,0 H 84 V 48.4 C 84,48.179086 84.179086,48 84.4,48 h 3.2 C 87.820914,48 88,47.820914 88,47.6 V 36.4 C 88,36.179086 87.820914,36 87.6,36 H 84 V 32.4 C 84,32.179086 83.820914,32 83.6,32 H 76.4 C 76.179086,32 76,31.820914 76,31.6 V 24.4 C 76,24.179086 76.179086,24 76.4,24 H 80 v 3.6 c 0,0.220914 0.179086,0.4 0.4,0.4 h 7.2 c 0.220914,0 0.4,0.179086 0.4,0.4 v 3.2 c 0,0.220914 0.179086,0.4 0.4,0.4 h 3.2 C 91.820914,32 92,31.820914 92,31.6 V 20.4 C 92,20.179086 92.179086,20 92.4,20 h 7.2 c 0.220914,0 0.4,0.179086 0.4,0.4 v 3.2 c 0,0.220914 -0.179086,0.4 -0.4,0.4 H 96.4 C 96.179086,24 96,24.179086 96,24.4 v 3.2 c 0,0.220914 0.179086,0.4 0.4,0.4 h 3.2 c 0.220914,0 0.4,0.179086 0.4,0.4 v 3.2 c 0,0.220914 -0.179086,0.4 -0.4,0.4 H 96.4 C 96.179086,32 96,32.179086 96,32.4 v 3.2 C 96,35.820914 95.820914,36 95.6,36 H 92.4 C 92.179086,36 92,36.179086 92,36.4 v 7.2 c 0,0.220914 0.179086,0.4 0.4,0.4 H 96 v 3.6 c 0,0.220914 0.179086,0.4 0.4,0.4 h 3.2 c 0.220914,0 0.4,0.179086 0.4,0.4 V 52 H 96.4 C 96.179086,52 96,52.179086 96,52.4 v 3.2 c 0,0.220914 -0.179086,0.4 -0.4,0.4 z m 36,-4 H 128 v -3.6 c 0,-0.220914 0.17909,-0.4 0.4,-0.4 h 3.2 c 0.22091,0 0.4,0.179086 0.4,0.4 v 3.2 c 0,0.220914 -0.17909,0.4 -0.4,0.4 z m -24,0 H 104 v -3.6 c 0,-0.220914 0.17909,-0.4 0.4,-0.4 h 3.2 c 0.22091,0 0.4,0.179086 0.4,0.4 V 52 Z m -52,0 H 52 V 48.4 C 52,48.179086 51.820914,48 51.6,48 H 48.4 C 48.179086,48 48,47.820914 48,47.6 V 40.4 C 48,40.179086 48.179086,40 48.4,40 H 52 v 3.6 c 0,0.220914 0.179086,0.4 0.4,0.4 H 56 v 8 z m -12,0 H 40.4 C 40.179086,52 40,51.820914 40,51.6 V 48.4 C 40,48.179086 40.179086,48 40.4,48 h 3.2 c 0.220914,0 0.4,0.179086 0.4,0.4 V 52 Z m -8,0 H 28.4 C 28.179086,52 28,51.820914 28,51.6 V 48.4 C 28,48.179086 28.179086,48 28.4,48 h 7.2 c 0.220914,0 0.4,0.179086 0.4,0.4 v 3.2 c 0,0.220914 -0.179086,0.4 -0.4,0.4 z m 36,-4 H 68.4 C 68.179086,48 68,47.820914 68,47.6 V 44 h 4 v 4 z m 60,-4 H 104.4 C 104.17909,44 104,43.820914 104,43.6 V 16.4 c 0,-0.220914 0.17909,-0.4 0.4,-0.4 h 27.2 c 0.22091,0 0.4,0.179086 0.4,0.4 v 27.2 c 0,0.220914 -0.17909,0.4 -0.4,0.4 z m -32,0 H 96 V 40.4 C 96,40.179086 96.179086,40 96.4,40 h 3.2 c 0.220914,0 0.4,0.179086 0.4,0.4 v 3.2 c 0,0.220914 -0.179086,0.4 -0.4,0.4 z m -16,0 H 80.4 C 80.179086,44 80,43.820914 80,43.6 V 36.4 C 80,36.179086 80.179086,36 80.4,36 H 84 v 7.6 c 0,0.220914 -0.179086,0.4 -0.4,0.4 z m -8,0 H 72 v -4 h 3.6 c 0.220914,0 0.4,0.179086 0.4,0.4 v 3.2 c 0,0.220914 -0.179086,0.4 -0.4,0.4 z m -8,0 H 64.4 C 64.179086,44 64,43.820914 64,43.6 V 40.4 C 64,40.179086 63.820914,40 63.6,40 H 60 V 36.4 C 60,36.179086 60.179086,36 60.4,36 h 11.2 c 0.220914,0 0.4,0.179086 0.4,0.4 V 40 H 68.4 C 68.179086,40 68,40.179086 68,40.4 V 44 Z m -8,0 H 56 v -4 h 4 v 3.6 c 0,0.220914 -0.179086,0.4 -0.4,0.4 z m -16,0 H 16.4 C 16.179086,44 16,43.820914 16,43.6 V 16.4 C 16,16.179086 16.179086,16 16.4,16 h 27.2 c 0.220914,0 0.4,0.179086 0.4,0.4 V 43.6 C 44,43.820914 43.820914,44 43.6,44 Z M 128,39.6 V 20.4 c 0,-0.220914 -0.17909,-0.4 -0.4,-0.4 h -19.2 c -0.22091,0 -0.4,0.179086 -0.4,0.4 v 19.2 c 0,0.220914 0.17909,0.4 0.4,0.4 h 19.2 c 0.22091,0 0.4,-0.179086 0.4,-0.4 z M 55.6,40 H 52 V 36.4 C 52,36.179086 52.179086,36 52.4,36 h 3.2 c 0.220914,0 0.4,0.179086 0.4,0.4 V 40 Z M 40,39.6 V 20.4 C 40,20.179086 39.820914,20 39.6,20 H 20.4 C 20.179086,20 20,20.179086 20,20.4 v 19.2 c 0,0.220914 0.179086,0.4 0.4,0.4 H 39.6 C 39.820914,40 40,39.820914 40,39.6 Z M 123.6,36 H 112.4 C 112.17909,36 112,35.820914 112,35.6 V 24.4 c 0,-0.220914 0.17909,-0.4 0.4,-0.4 h 11.2 c 0.22091,0 0.4,0.179086 0.4,0.4 v 11.2 c 0,0.220914 -0.17909,0.4 -0.4,0.4 z m -88,0 H 24.4 C 24.179086,36 24,35.820914 24,35.6 V 24.4 C 24,24.179086 24.179086,24 24.4,24 h 11.2 c 0.220914,0 0.4,0.179086 0.4,0.4 v 11.2 c 0,0.220914 -0.179086,0.4 -0.4,0.4 z m 36,-4 H 56.4 C 56.179086,32 56,31.820914 56,31.6 V 28.4 C 56,28.179086 55.820914,28 55.6,28 H 52.4 C 52.179086,28 52,27.820914 52,27.6 V 24.4 C 52,24.179086 52.179086,24 52.4,24 h 3.2 C 55.820914,24 56,23.820914 56,23.6 V 16.4 C 56,16.179086 56.179086,16 56.4,16 h 3.2 c 0.220914,0 0.4,0.179086 0.4,0.4 v 11.2 c 0,0.220914 0.179086,0.4 0.4,0.4 h 7.2 C 67.820914,28 68,27.820914 68,27.6 V 24.4 C 68,24.179086 68.179086,24 68.4,24 h 3.2 c 0.220914,0 0.4,0.179086 0.4,0.4 v 7.2 c 0,0.220914 -0.179086,0.4 -0.4,0.4 z m 12,-8 H 80 V 20.4 C 80,20.179086 80.179086,20 80.4,20 H 84 v 3.6 c 0,0.220914 -0.179086,0.4 -0.4,0.4 z m 4,-4 H 84 V 16.4 C 84,16.179086 84.179086,16 84.4,16 h 3.2 c 0.220914,0 0.4,0.179086 0.4,0.4 v 3.2 c 0,0.220914 -0.179086,0.4 -0.4,0.4 z m -12,0 H 68.4 C 68.179086,20 68,19.820914 68,19.6 V 16.4 C 68,16.179086 68.179086,16 68.4,16 h 7.2 c 0.220914,0 0.4,0.179086 0.4,0.4 v 3.2 c 0,0.220914 -0.179086,0.4 -0.4,0.4 z m -24,0 H 48.4 C 48.179086,20 48,19.820914 48,19.6 V 16.4 C 48,16.179086 48.179086,16 48.4,16 h 3.2 c 0.220914,0 0.4,0.179086 0.4,0.4 v 3.2 c 0,0.220914 -0.179086,0.4 -0.4,0.4 z"
           id="path832" />
      </g>
    </g>
  </g>
</svg>
